<?xml version="1.0" encoding="UTF-8" standalone="no"?>
<!-- Created with Inkscape (http://www.inkscape.org/) -->
<svg id="svg2676" xmlns:rdf="http://www.w3.org/1999/02/22-rdf-syntax-ns#" xmlns="http://www.w3.org/2000/svg" height="80" width="240" version="1.1" xmlns:cc="http://creativecommons.org/ns#" xmlns:xlink="http://www.w3.org/1999/xlink" xmlns:dc="http://purl.org/dc/elements/1.1/">
 <title id="title4509">Jekyll Research Center logotype</title>
 <metadata id="metadata2681">
  <rdf:RDF>
   <cc:Work rdf:about="">
    <dc:format>image/svg+xml</dc:format>
    <dc:type rdf:resource="http://purl.org/dc/dcmitype/StillImage"/>
    <cc:license rdf:resource="https://github.com/jekyllrc/brand/blob/master/LICENSE.markdown"/>
    <dc:title>Jekyll Research Center logotype</dc:title>
    <dc:date>2015-08-01</dc:date>
    <dc:creator>
     <cc:Agent>
      <dc:title>Günter Kits (kyber@kits.ee)</dc:title>
     </cc:Agent>
    </dc:creator>
    <dc:subject>
     <rdf:Bag>
      <rdf:li>jekyll research center</rdf:li>
     </rdf:Bag>
    </dc:subject>
    <dc:contributor>
     <cc:Agent>
      <dc:title/>
     </cc:Agent>
    </dc:contributor>
    <dc:source>https://github.com/jekyllrc/brand</dc:source>
    <dc:description>Solid two color logotype with title.</dc:description>
   </cc:Work>
  </rdf:RDF>
 </metadata>
 <g id="g5068" transform="translate(13.851 6.3492)">
  <g id="g4494" fill="#333" transform="translate(1.1255 -1.6479)">
   <g id="text3345" transform="translate(-.18197)">
    <path id="path3354" d="m32.773 12.837c0.61494 0.000025 1.1889 0.20501 1.7219 0.61496 0.57395 0.41 0.86093 0.88146 0.86094 1.4144-0.000015 0.49199-0.2665 0.94296-0.79944 1.3529-0.49198 0.369-1.0454 0.55348-1.6604 0.55346-0.61497 0.000022-1.1889-0.20496-1.7219-0.61496-0.49198-0.45095-0.73796-0.96341-0.73795-1.5374-0.00001-1.1889 0.77894-1.7834 2.3368-1.7834m-1.1684 8.4864c-0.000012 0.246-1.6194 3.1568-4.8582 8.7324-3.1568 6.0266-5.5961 10.229-7.318 12.607-3.7307 5.3296-7.236 7.9944-10.516 7.9944-1.2299-0.000012-2.3573-0.40998-3.3823-1.2299-1.0659-0.77896-1.5989-1.5784-1.5989-2.3983 0.0000163-0.77896 0.1845-1.1684 0.55346-1.1684 0.041013-0.000008 0.47148 0.51246 1.2914 1.5374 0.77896 1.0659 1.7014 1.5989 2.7673 1.5989 3.2798-0.00001 7.0105-3.7103 11.192-11.131 2.5828-4.6327 4.3457-8.3839 5.2886-11.254-0.49197 0.57397-1.3529 1.4144-2.5828 2.5213-1.1889 1.1069-1.9269 1.6604-2.2138 1.6604-0.24598 0.000007-0.36898-0.06149-0.36898-0.18449 0-0.36897 0.32798-0.84043 0.98393-1.4144 0.65595-0.57395 1.5374-1.6604 2.6443-3.2593s1.7629-2.4803 1.9679-2.6443l2.0294-2.1524c0.81994-0.77893 1.7014-1.1684 2.6443-1.1684 0.98392 0.000019 1.4759 0.45099 1.4759 1.3529"/>
    <path id="path3356" d="m35.735 38.85c-0.45097-0.000001-0.86094-0.0615-1.2299-0.18449-2.6238-0.73795-3.9357-2.2138-3.9357-4.4277 0.000002-2.8698 1.8039-6.1906 5.4116-9.9623s6.8465-5.6576 9.7163-5.6576c0.94292 0.00002 1.7014 0.2665 2.2753 0.79945 0.61494 0.49198 0.92242 1.1069 0.92244 1.8449-0.000016 2.2959-1.7424 4.4892-5.2271 6.58-3.4438 2.0909-6.2521 3.1363-8.4249 3.1363-0.32798 0.000007-0.61496-0.04099-0.86094-0.12299-0.61496 1.1069-0.92244 2.2753-0.92244 3.5053-0.000001 2.1319 1.0044 3.1978 3.0133 3.1978 2.0499 0 4.6942-1.3734 7.933-4.1202 2.5008-2.0089 4.6327-4.1407 6.3956-6.3956 0.36896-0.49195 0.67644-0.73794 0.92244-0.73795 0.28696 0.000012 0.43045 0.123 0.43047 0.36898-0.000019 0.24599-0.16401 0.59447-0.49197 1.0454-2.2139 2.9108-4.8787 5.4936-7.9944 7.7485-3.1158 2.2548-5.7601 3.3823-7.933 3.3823m11.623-17.711c-0.000015-0.49195-0.53298-0.73793-1.5989-0.73795-1.0249 0.000018-2.5008 0.79946-4.4277 2.3983-2.5828 2.1319-4.5917 4.3662-6.0266 6.703 0.24598 0.082 0.51246 0.123 0.79944 0.12299 1.5579 0.000008 3.6282-0.81993 6.2111-2.4598 2.6238-1.6809 4.2637-3.5052 4.9197-5.4731 0.08198-0.20497 0.12298-0.38946 0.12299-0.55346"/>
    <path id="path3358" d="m61.06 38.789c-3.2388-0.000001-5.9856-2.5623-8.2404-7.687-0.57396 0.86095-1.8654 3.2798-3.8742 7.2565-1.4759-0.57396-2.2138-1.3529-2.2138-2.3368 0.000002-1.7629 2.6443-6.6005 7.933-14.513 5.2886-7.9124 8.9169-12.566 10.885-13.96 0.16397-0.12296 0.49195-0.18446 0.98393-0.18449 1.2709 0.0000306 1.9063 0.32801 1.9064 0.98393-0.00002 0.32801-1.4349 2.1729-4.3047 5.5346-2.8288 3.3618-4.4072 5.3911-4.7352 6.0881 3.7307-1.9268 6.703-2.8903 8.9169-2.8903 1.2709 0.000021 2.3573 0.51248 3.2593 1.5374 0.86092 0.86096 1.2914 1.7424 1.2914 2.6443-0.000024 0.12301-0.000024 0.246 0 0.36897-0.328 2.3369-1.9679 4.2637-4.9197 5.7806-2.3779 1.2709-4.5917 1.9064-6.6415 1.9064-2.0499 0.000009-3.4848-0.26647-4.3047-0.79944-0.24599-0.04099-0.45098 0.02051-0.61496 0.18449-0.123 0.164-0.1435 0.36898-0.0615 0.61496 1.1479 5.0837 3.0543 7.6255 5.7191 7.6255 1.3939 0.000001 3.1773-0.77894 5.3501-2.3368 2.2138-1.5579 4.5097-3.7512 6.8875-6.58 0.28695-0.28697 0.53294-0.43046 0.73795-0.43047 0.24596 0.000011 0.36895 0.123 0.36898 0.36898-0.000027 0.205-0.14352 0.51247-0.43047 0.92244-2.2139 2.7058-4.3047 4.8377-6.2726 6.3956-2.9928 2.3368-5.5346 3.5053-7.6255 3.5053m8.8554-18.818c-0.000021-0.32796-0.18451-0.65594-0.55346-0.98393-0.369-0.32796-0.75847-0.49195-1.1684-0.49197-2.2139 0.000019-4.8787 0.92246-7.9944 2.7673-3.0748 1.8449-4.9607 3.9357-5.6576 6.2726 0.36897 0.00001 1.3529 0.06151 2.9518 0.18449 1.8449 0.00001 4.2637-0.75844 7.2565-2.2753 3.4437-1.7219 5.1656-3.5462 5.1656-5.4731"/>
    <path id="path3360" d="m69.271 45.184c1.9679 2.4598 3.6692 3.6897 5.1041 3.6897 2.3368-0.000011 4.8582-1.8654 7.564-5.5961 1.9679-2.7468 3.8947-6.2111 5.7806-10.393l2.3368-5.6576-9.0399 7.072c-2.7878 2.1729-5.0222 3.2593-6.703 3.2593-0.90194 0-1.6194-0.30748-2.1524-0.92244-0.53296-0.61496-0.79944-1.3119-0.79944-2.0909 0.000001-1.7629 1.5169-4.6532 4.5507-8.6709 3.0338-4.0587 5.2476-6.0881 6.6415-6.0881 1.3939 0.000018 2.0908 0.47149 2.0909 1.4144-0.000012 0.36899-1.8244 2.5008-5.4731 6.3956-3.6078 3.8537-5.4116 6.4571-5.4116 7.81-0.000001 0.53296 0.34848 0.79945 1.0454 0.79944 1.3119 0.000001 3.9357-1.5374 7.8715-4.6122 3.9767-3.0748 6.9695-5.6166 8.9784-7.6255 0.45095-0.53295 1.0864-1.3324 1.9064-2.3983 0.77892-0.90192 1.6399-1.3529 2.5828-1.3529 0.94291 0.000017 1.4144 0.45099 1.4144 1.3529-0.000024 0.164-0.92246 1.6194-2.7673 4.3662-1.8449 2.7468-2.8083 4.2022-2.8903 4.3662-1.2709 2.4598-3.2183 6.0471-5.8421 10.762-3.9767 6.3956-7.9535 9.5933-11.93 9.5933-1.3119-0.000012-2.4598-0.57397-3.4438-1.7219-0.98393-1.1069-1.4554-2.3573-1.4144-3.7512"/>
    <path id="path3362" d="m97.814 34.976c-0.000002 1.2299 0.67645 1.8449 2.0294 1.8449 1.3529 0.000002 3.0953-0.71745 5.2271-2.1524 2.1318-1.4349 4.2022-3.3823 6.2111-5.8421 0.49195-0.65594 0.88142-0.98392 1.1684-0.98393 0.28696 0.000011 0.43045 0.123 0.43047 0.36898-0.00002 0.24599-0.84046 1.3119-2.5213 3.1978-4.0997 4.5097-7.523 6.7645-10.27 6.7645-1.3529 0-2.5008-0.30748-3.4438-0.92244-0.94294-0.65595-1.4144-1.6399-1.4144-2.9518 0-1.3529 0.34848-2.9108 1.0454-4.6737 1.1889-2.7878 3.0953-6.2931 5.7191-10.516 4.7967-7.7894 8.1994-11.684 10.208-11.684 0.40996 0.0000307 0.81993 0.16402 1.2299 0.49197 0.45095 0.28701 0.69693 0.61499 0.73795 0.98393-0.94296 1.2709-2.7673 3.7103-5.4731 7.318-2.6648 3.6078-4.5097 6.2111-5.5346 7.81-1.0249 1.5579-1.8039 2.7263-2.3368 3.5053-0.49198 0.77896-0.86095 1.3939-1.1069 1.8449-0.24599 0.40998-0.53297 0.96344-0.86094 1.6604-0.69696 1.3939-1.0454 2.7058-1.0454 3.9357"/>
    <path id="path3364" d="m112.71 34.976c0 1.2299 0.67645 1.8449 2.0294 1.8449 1.3529 0.000002 3.0953-0.71745 5.2271-2.1524 2.1318-1.4349 4.2022-3.3823 6.2111-5.8421 0.49195-0.65594 0.88142-0.98392 1.1684-0.98393 0.28696 0.000011 0.43045 0.123 0.43047 0.36898-0.00002 0.24599-0.84046 1.3119-2.5213 3.1978-4.0997 4.5097-7.523 6.7645-10.27 6.7645-1.3529 0-2.5008-0.30748-3.4438-0.92244-0.94293-0.65595-1.4144-1.6399-1.4144-2.9518 0-1.3529 0.34848-2.9108 1.0454-4.6737 1.1889-2.7878 3.0953-6.2931 5.7191-10.516 4.7966-7.7894 8.1994-11.684 10.208-11.684 0.40996 0.0000307 0.81993 0.16402 1.2299 0.49197 0.45095 0.28701 0.69693 0.61499 0.73795 0.98393-0.94295 1.2709-2.7673 3.7103-5.4731 7.318-2.6648 3.6078-4.5097 6.2111-5.5346 7.81-1.0249 1.5579-1.8039 2.7263-2.3368 3.5053-0.49197 0.77896-0.86095 1.3939-1.1069 1.8449-0.24598 0.40998-0.53296 0.96344-0.86094 1.6604-0.69695 1.3939-1.0454 2.7058-1.0454 3.9357"/>
   </g>
   <g id="text4537">
    <path id="path4563" d="m9.5207 55.165c0.23999-0.13332 0.35999-0.29999 0.36-0.5-0.0000057-0.19999-0.073339-0.36666-0.22-0.5-0.14667-0.13332-0.32667-0.19999-0.54-0.2-0.18667 0.00001-0.38 0.04001-0.58 0.12-0.18667 0.08001-0.38 0.22668-0.58 0.44-0.18667 0.21334-0.38 0.50668-0.58 0.88-0.2 0.37334-0.4 0.86001-0.6 1.46 0.039997-0.50666 0.066664-0.89332 0.08-1.16 0.026664-0.27999 0.046664-0.48666 0.06-0.62 0.013331-0.14666 0.019997-0.25332 0.02-0.32 0.013331-0.06666 0.019997-0.13999 0.02-0.22-0.0000028-0.14666-0.066669-0.26666-0.2-0.36-0.12-0.10666-0.26667-0.15999-0.44-0.16-0.18667 0.00001-0.34 0.06001-0.46 0.18-0.12 0.12001-0.18 0.26668-0.18 0.44v9.78l1.26-0.02v-5.3c-0.0000027-0.51999 0.039997-0.96666 0.12-1.34 0.09333-0.38666 0.21333-0.71333 0.36-0.98 0.16-0.26666 0.33333-0.48666 0.52-0.66 0.18666-0.17332 0.38-0.31999 0.58-0.44 0.18666-0.10666 0.36-0.19332 0.52-0.26 0.17333-0.07999 0.33333-0.16666 0.48-0.26"/>
    <path id="path4565" d="m17.974 59.725c0.33332 0.000005 0.55332-0.04 0.66-0.12 0.11999-0.09333 0.17999-0.29333 0.18-0.6-0.00001-0.63999-0.10668-1.26-0.32-1.86-0.20001-0.59999-0.49334-1.1333-0.88-1.6-0.37334-0.46666-0.83334-0.83999-1.38-1.12-0.53334-0.27999-1.1267-0.41999-1.78-0.42-0.70667 0.00001-1.3467 0.14668-1.92 0.44-0.56 0.29334-1.04 0.68001-1.44 1.16-0.4 0.48001-0.71334 1.04-0.94 1.68-0.21333 0.62667-0.32 1.28-0.32 1.96-9e-7 0.72 0.10667 1.4067 0.32 2.06 0.21333 0.64 0.52 1.2067 0.92 1.7 0.41333 0.48 0.91333 0.86667 1.5 1.16 0.58666 0.28 1.26 0.42 2.02 0.42 0.43999 0 0.83999-0.04667 1.2-0.14 0.37333-0.09333 0.76666-0.22 1.18-0.38l-0.28-0.94c-0.33334 0.09333-0.67334 0.18-1.02 0.26-0.33334 0.06667-0.67334 0.1-1.02 0.1-0.49334 0.000001-0.94667-0.09333-1.36-0.28-0.41334-0.2-0.77334-0.46666-1.08-0.8-0.29334-0.34666-0.52667-0.74666-0.7-1.2-0.16-0.46666-0.24-0.96-0.24-1.48h6.7m-3.56-4.74c0.47999 0.000009 0.91999 0.11334 1.32 0.34 0.39999 0.22668 0.73999 0.52668 1.02 0.9 0.27999 0.36001 0.49999 0.77334 0.66 1.24 0.15999 0.45334 0.24666 0.91334 0.26 1.38h-6.48c0.06666-0.47999 0.16666-0.95333 0.3-1.42 0.14666-0.46666 0.34666-0.87999 0.6-1.24 0.25333-0.35999 0.56666-0.64666 0.94-0.86 0.37333-0.22666 0.83333-0.33999 1.38-0.34"/>
    <path id="path4567" d="m23.457 64.545c0.44 0 0.88-0.06 1.32-0.18 0.43999-0.13333 0.83999-0.32 1.2-0.56 0.35999-0.24 0.64666-0.54 0.86-0.9 0.22666-0.36 0.33999-0.77333 0.34-1.24-0.000008-0.6-0.17334-1.0867-0.52-1.46-0.33334-0.38666-0.74667-0.71333-1.24-0.98-0.48001-0.28-0.99334-0.51333-1.54-0.7-0.54667-0.19999-1.02-0.40666-1.42-0.62-0.26667-0.14666-0.50667-0.31333-0.72-0.5-0.2-0.18666-0.3-0.42666-0.3-0.72-0.000002-0.29332 0.06-0.53999 0.18-0.74 0.13333-0.21332 0.3-0.38666 0.5-0.52 0.2-0.13332 0.42-0.22666 0.66-0.28 0.24-0.06666 0.47333-0.09999 0.7-0.1 0.37333 0.000009 0.71333 0.06001 1.02 0.18 0.31999 0.12001 0.59999 0.24668 0.84 0.38 0.11999 0.06668 0.23333 0.13334 0.34 0.2 0.10666 0.05334 0.21333 0.10001 0.32 0.14 0.17333 0.09334 0.29999 0.14001 0.38 0.14 0.14666 0.000008 0.27333-0.03333 0.38-0.1 0.10666-0.06666 0.15999-0.17332 0.16-0.32-0.000008-0.27999-0.14001-0.51999-0.42-0.72-0.26667-0.21332-0.58667-0.38666-0.96-0.52-0.36001-0.14666-0.73334-0.25332-1.12-0.32-0.37334-0.07999-0.66667-0.11999-0.88-0.12-0.41334 0.00001-0.82667 0.06001-1.24 0.18-0.4 0.12001-0.76 0.30001-1.08 0.54-0.32 0.22668-0.58 0.50668-0.78 0.84-0.2 0.33334-0.3 0.71334-0.3 1.14-0.000001 0.36001 0.07333 0.67334 0.22 0.94 0.14666 0.26667 0.34 0.50667 0.58 0.72 0.25333 0.20001 0.54666 0.38001 0.88 0.54 0.33333 0.16 0.68 0.31334 1.04 0.46 0.18666 0.06667 0.36666 0.13334 0.54 0.2 0.17333 0.06667 0.34666 0.13334 0.52 0.2 0.18666 0.06667 0.35333 0.14 0.5 0.22 0.16 0.08 0.31333 0.16 0.46 0.24 0.27999 0.17334 0.51333 0.37334 0.7 0.6 0.19999 0.22667 0.29999 0.51334 0.3 0.86-0.000007 0.30667-0.08001 0.58-0.24 0.82-0.14667 0.22667-0.33334 0.41334-0.56 0.56-0.22667 0.14667-0.47334 0.26-0.74 0.34-0.26667 0.06667-0.52 0.1-0.76 0.1-0.36 0.000001-0.68-0.03333-0.96-0.1-0.26667-0.08-0.52-0.18667-0.76-0.32-0.22667-0.12-0.45334-0.26666-0.68-0.44-0.09334-0.06667-0.18667-0.13333-0.28-0.2-0.08-0.06667-0.17334-0.13333-0.28-0.2l-0.8 0.86c0.2 0.24 0.44667 0.45333 0.74 0.64 0.29333 0.17333 0.6 0.32 0.92 0.44 0.33333 0.12 0.66666 0.21333 1 0.28 0.34666 0.06667 0.67333 0.1 0.98 0.1"/>
    <path id="path4569" d="m36.932 59.725c0.33332 0.000005 0.55332-0.04 0.66-0.12 0.11999-0.09333 0.17999-0.29333 0.18-0.6-0.00001-0.63999-0.10668-1.26-0.32-1.86-0.20001-0.59999-0.49334-1.1333-0.88-1.6-0.37334-0.46666-0.83334-0.83999-1.38-1.12-0.53334-0.27999-1.1267-0.41999-1.78-0.42-0.70667 0.00001-1.3467 0.14668-1.92 0.44-0.56 0.29334-1.04 0.68001-1.44 1.16-0.4 0.48001-0.71334 1.04-0.94 1.68-0.21334 0.62667-0.32 1.28-0.32 1.96-0.000001 0.72 0.10666 1.4067 0.32 2.06 0.21333 0.64 0.52 1.2067 0.92 1.7 0.41333 0.48 0.91333 0.86667 1.5 1.16 0.58666 0.28 1.26 0.42 2.02 0.42 0.43999 0 0.83999-0.04667 1.2-0.14 0.37333-0.09333 0.76666-0.22 1.18-0.38l-0.28-0.94c-0.33334 0.09333-0.67334 0.18-1.02 0.26-0.33334 0.06667-0.67334 0.1-1.02 0.1-0.49334 0.000001-0.94667-0.09333-1.36-0.28-0.41334-0.2-0.77334-0.46666-1.08-0.8-0.29334-0.34666-0.52667-0.74666-0.7-1.2-0.16-0.46666-0.24-0.96-0.24-1.48h6.7m-3.56-4.74c0.47999 0.000009 0.91999 0.11334 1.32 0.34 0.39999 0.22668 0.73999 0.52668 1.02 0.9 0.27999 0.36001 0.49999 0.77334 0.66 1.24 0.15999 0.45334 0.24666 0.91334 0.26 1.38h-6.48c0.06666-0.47999 0.16666-0.95333 0.3-1.42 0.14666-0.46666 0.34666-0.87999 0.6-1.24 0.25333-0.35999 0.56666-0.64666 0.94-0.86 0.37333-0.22666 0.83333-0.33999 1.38-0.34"/>
    <path id="path4571" d="m47.004 64.465h1.26v-9.86c-0.00001-0.15999-0.06001-0.29999-0.18-0.42-0.12001-0.13332-0.25334-0.19999-0.4-0.2-0.20001 0.00001-0.34001 0.03334-0.42 0.1-0.08001 0.05334-0.13334 0.12668-0.16 0.22-0.02668 0.08001-0.05334 0.20668-0.08 0.38v1.12c-0.54668-0.67999-1.0867-1.1533-1.62-1.42-0.52001-0.26666-1.06-0.39999-1.62-0.4-0.69334 0.00001-1.3133 0.15334-1.86 0.46-0.54667 0.29334-1.0133 0.68668-1.4 1.18-0.37334 0.49334-0.66 1.06-0.86 1.7-0.2 0.62667-0.3 1.2667-0.3 1.92-0.000001 0.68 0.09333 1.34 0.28 1.98 0.2 0.62667 0.48666 1.1933 0.86 1.7 0.37333 0.49333 0.83333 0.89333 1.38 1.2 0.54666 0.29333 1.18 0.44 1.9 0.44 0.58666 0 1.14-0.16 1.66-0.48 0.53332-0.32 1.0533-0.9 1.56-1.74v2.12m-3.02-9.46c0.61333 0.000009 1.1133 0.12668 1.5 0.38 0.39999 0.25334 0.71332 0.58001 0.94 0.98 0.23999 0.38667 0.40666 0.82667 0.5 1.32 0.09332 0.48001 0.13999 0.95334 0.14 1.42-0.000009 0.49334-0.04668 1.0067-0.14 1.54-0.08001 0.52-0.23334 0.99334-0.46 1.42-0.22668 0.42667-0.55334 0.78-0.98 1.06-0.41334 0.28-0.94667 0.42-1.6 0.42-0.6 0.000001-1.1067-0.13333-1.52-0.4-0.4-0.28-0.72667-0.63333-0.98-1.06-0.24-0.42666-0.41334-0.89333-0.52-1.4-0.09334-0.50666-0.14-0.99333-0.14-1.46-0.000003-0.46666 0.05333-0.94666 0.16-1.44 0.12-0.50666 0.30666-0.95999 0.56-1.36 0.26666-0.41332 0.60666-0.75332 1.02-1.02 0.41333-0.26666 0.92-0.39999 1.52-0.4"/>
    <path id="path4573" d="m53.693 55.165c0.23999-0.13332 0.35999-0.29999 0.36-0.5-0.000006-0.19999-0.07334-0.36666-0.22-0.5-0.14667-0.13332-0.32667-0.19999-0.54-0.2-0.18667 0.00001-0.38 0.04001-0.58 0.12-0.18667 0.08001-0.38 0.22668-0.58 0.44-0.18667 0.21334-0.38 0.50668-0.58 0.88-0.2 0.37334-0.4 0.86001-0.6 1.46 0.04-0.50666 0.06666-0.89332 0.08-1.16 0.02666-0.27999 0.04666-0.48666 0.06-0.62 0.01333-0.14666 0.02-0.25332 0.02-0.32 0.01333-0.06666 0.02-0.13999 0.02-0.22-0.000003-0.14666-0.06667-0.26666-0.2-0.36-0.12-0.10666-0.26667-0.15999-0.44-0.16-0.18667 0.00001-0.34 0.06001-0.46 0.18-0.12 0.12001-0.18 0.26668-0.18 0.44v9.78l1.26-0.02v-5.3c-0.000003-0.51999 0.04-0.96666 0.12-1.34 0.09333-0.38666 0.21333-0.71333 0.36-0.98 0.16-0.26666 0.33333-0.48666 0.52-0.66 0.18666-0.17332 0.38-0.31999 0.58-0.44 0.18666-0.10666 0.36-0.19332 0.52-0.26 0.17333-0.07999 0.33333-0.16666 0.48-0.26"/>
    <path id="path4575" d="m60.945 55.825 0.58-1.02c-0.46667-0.26666-0.90667-0.46666-1.32-0.6-0.41334-0.14666-0.90001-0.21999-1.46-0.22-0.74667 0.00001-1.4133 0.14668-2 0.44-0.57334 0.28001-1.06 0.66668-1.46 1.16-0.4 0.48001-0.70667 1.04-0.92 1.68-0.2 0.64001-0.3 1.32-0.3 2.04-0.000001 0.70667 0.1 1.38 0.3 2.02 0.2 0.62667 0.49333 1.18 0.88 1.66 0.4 0.48 0.88 0.86 1.44 1.14 0.57333 0.28 1.2267 0.42 1.96 0.42 0.18666 0 0.42666-0.01333 0.72-0.04 0.30666-0.02667 0.59999-0.08 0.88-0.16 0.29333-0.08 0.53999-0.2 0.74-0.36 0.21332-0.16 0.31999-0.37333 0.32-0.64-0.000008-0.14667-0.06001-0.27333-0.18-0.38-0.10667-0.10666-0.23334-0.16-0.38-0.16-0.08001 0.000002-0.19334 0.02667-0.34 0.08-0.08001 0.02667-0.16667 0.06-0.26 0.1-0.08001 0.04-0.16667 0.08-0.26 0.12-0.18667 0.08-0.38667 0.15333-0.6 0.22-0.21334 0.06667-0.43334 0.1-0.66 0.1-0.54667 0.000001-1.02-0.13333-1.42-0.4-0.4-0.28-0.73334-0.62666-1-1.04-0.25334-0.42666-0.44667-0.88-0.58-1.36-0.12-0.49333-0.18-0.96-0.18-1.4-0.000002-0.47999 0.06-0.95999 0.18-1.44 0.12-0.49333 0.31333-0.93999 0.58-1.34 0.26666-0.39999 0.60666-0.71999 1.02-0.96 0.42666-0.25332 0.93333-0.37999 1.52-0.38 0.38666 0.000009 0.75999 0.07334 1.12 0.22 0.37333 0.14668 0.73333 0.31334 1.08 0.5"/>
    <path id="path4577" d="m70.779 64.605c0.18666 0 0.33999-0.06 0.46-0.18 0.11999-0.12 0.17999-0.27333 0.18-0.46v-6.12c-0.00001-0.54666-0.08668-1.0533-0.26-1.52-0.16001-0.47999-0.40001-0.88666-0.72-1.22-0.32001-0.34666-0.70668-0.61332-1.16-0.8-0.44001-0.19999-0.94001-0.29999-1.5-0.3-0.52001 0.00001-1.0333 0.14001-1.54 0.42-0.50667 0.26668-1.0133 0.75334-1.52 1.46v-5.96c-0.000003-0.17332-0.06-0.31998-0.18-0.44-0.12-0.13332-0.26667-0.19998-0.44-0.2-0.17334 0.000015-0.32667 0.06668-0.46 0.2-0.12 0.12002-0.18 0.27335-0.18 0.46v14.48h1.24v-6.62c-0.000003-0.37333 0.07333-0.72666 0.22-1.06 0.14666-0.33332 0.34-0.62666 0.58-0.88 0.25333-0.25332 0.54666-0.45332 0.88-0.6 0.33333-0.14666 0.68666-0.21999 1.06-0.22 0.38666 0.000009 0.74666 0.07334 1.08 0.22 0.33333 0.14668 0.61999 0.35334 0.86 0.62 0.25332 0.25334 0.44666 0.55334 0.58 0.9 0.14666 0.33334 0.21999 0.68667 0.22 1.06v6.14c-0.000008 0.17333 0.05332 0.32 0.16 0.44 0.11999 0.12 0.26666 0.18 0.44 0.18"/>
    <path id="path4579" d="m85.593 55.825 0.58-1.02c-0.46668-0.26666-0.90668-0.46666-1.32-0.6-0.41334-0.14666-0.90001-0.21999-1.46-0.22-0.74667 0.00001-1.4133 0.14668-2 0.44-0.57334 0.28001-1.06 0.66668-1.46 1.16-0.4 0.48001-0.70667 1.04-0.92 1.68-0.2 0.64001-0.3 1.32-0.3 2.04-0.000001 0.70667 0.1 1.38 0.3 2.02 0.2 0.62667 0.49333 1.18 0.88 1.66 0.4 0.48 0.88 0.86 1.44 1.14 0.57333 0.28 1.2267 0.42 1.96 0.42 0.18666 0 0.42666-0.01333 0.72-0.04 0.30666-0.02667 0.59999-0.08 0.88-0.16 0.29332-0.08 0.53999-0.2 0.74-0.36 0.21332-0.16 0.31999-0.37333 0.32-0.64-0.000009-0.14667-0.06001-0.27333-0.18-0.38-0.10668-0.10666-0.23334-0.16-0.38-0.16-0.08001 0.000002-0.19334 0.02667-0.34 0.08-0.08001 0.02667-0.16667 0.06-0.26 0.1-0.08001 0.04-0.16667 0.08-0.26 0.12-0.18667 0.08-0.38667 0.15333-0.6 0.22-0.21334 0.06667-0.43334 0.1-0.66 0.1-0.54667 0.000001-1.02-0.13333-1.42-0.4-0.4-0.28-0.73334-0.62666-1-1.04-0.25334-0.42666-0.44667-0.88-0.58-1.36-0.12-0.49333-0.18-0.96-0.18-1.4-0.000003-0.47999 0.06-0.95999 0.18-1.44 0.12-0.49333 0.31333-0.93999 0.58-1.34 0.26666-0.39999 0.60666-0.71999 1.02-0.96 0.42666-0.25332 0.93333-0.37999 1.52-0.38 0.38666 0.000009 0.75999 0.07334 1.12 0.22 0.37333 0.14668 0.73332 0.31334 1.08 0.5"/>
    <path id="path4581" d="m94.515 59.725c0.33332 0.000005 0.55332-0.04 0.66-0.12 0.11999-0.09333 0.17999-0.29333 0.18-0.6-0.00001-0.63999-0.10668-1.26-0.32-1.86-0.20001-0.59999-0.49334-1.1333-0.88-1.6-0.37334-0.46666-0.83334-0.83999-1.38-1.12-0.53334-0.27999-1.1267-0.41999-1.78-0.42-0.70667 0.00001-1.3467 0.14668-1.92 0.44-0.56 0.29334-1.04 0.68001-1.44 1.16-0.4 0.48001-0.71334 1.04-0.94 1.68-0.21333 0.62667-0.32 1.28-0.32 1.96-0.000001 0.72 0.10667 1.4067 0.32 2.06 0.21333 0.64 0.52 1.2067 0.92 1.7 0.41333 0.48 0.91333 0.86667 1.5 1.16 0.58666 0.28 1.26 0.42 2.02 0.42 0.43999 0 0.83999-0.04667 1.2-0.14 0.37333-0.09333 0.76666-0.22 1.18-0.38l-0.28-0.94c-0.33334 0.09333-0.67334 0.18-1.02 0.26-0.33334 0.06667-0.67334 0.1-1.02 0.1-0.49334 0.000001-0.94667-0.09333-1.36-0.28-0.41334-0.2-0.77334-0.46666-1.08-0.8-0.29334-0.34666-0.52667-0.74666-0.7-1.2-0.16-0.46666-0.24-0.96-0.24-1.48h6.7m-3.56-4.74c0.47999 0.000009 0.91999 0.11334 1.32 0.34 0.39999 0.22668 0.73999 0.52668 1.02 0.9 0.27999 0.36001 0.49999 0.77334 0.66 1.24 0.15999 0.45334 0.24666 0.91334 0.26 1.38h-6.48c0.06666-0.47999 0.16666-0.95333 0.3-1.42 0.14666-0.46666 0.34666-0.87999 0.6-1.24 0.25333-0.35999 0.56666-0.64666 0.94-0.86 0.37333-0.22666 0.83333-0.33999 1.38-0.34"/>
    <path id="path4583" d="m104.26 64.605c0.18666 0 0.33999-0.06 0.46-0.18 0.11999-0.12 0.17999-0.27333 0.18-0.46v-6.14c-0.00001-0.55999-0.0867-1.0733-0.26-1.54-0.17334-0.46666-0.42001-0.86666-0.74-1.2-0.32001-0.34666-0.70667-0.61332-1.16-0.8-0.45334-0.18666-0.96-0.27999-1.52-0.28-0.25334 0.00001-0.51334 0.02668-0.78 0.08-0.25334 0.04001-0.50667 0.12001-0.76 0.24-0.25334 0.12001-0.50667 0.29334-0.76 0.52-0.25334 0.21334-0.5 0.50001-0.74 0.86v-1c-0.000003-0.14666-0.02-0.27999-0.06-0.4-0.02667-0.10666-0.08-0.18666-0.16-0.24-0.06667-0.06666-0.18667-0.09999-0.36-0.1-0.18667 0.00001-0.34667 0.06001-0.48 0.18-0.12 0.12001-0.18 0.27334-0.18 0.46v9.8h1.24v-6.6c-0.000003-0.37333 0.06666-0.72666 0.2-1.06 0.14666-0.33332 0.34-0.62666 0.58-0.88 0.25333-0.25332 0.54-0.45332 0.86-0.6 0.33333-0.14666 0.69333-0.21999 1.08-0.22 0.37333 0.000009 0.72666 0.07334 1.06 0.22 0.34666 0.14668 0.63999 0.35334 0.88 0.62 0.25333 0.25334 0.45333 0.55334 0.6 0.9 0.14666 0.33334 0.21999 0.68667 0.22 1.06v6.14c-0.00001 0.17333 0.0533 0.32 0.16 0.44 0.11999 0.12 0.26666 0.18 0.44 0.18"/>
    <path id="path4585" d="m109.75 55.185c0.14667-0.03999 0.26-0.09332 0.34-0.16 0.08-0.07999 0.12-0.19332 0.12-0.34 0-0.15999-0.04-0.27999-0.12-0.36-0.08-0.07999-0.19333-0.13332-0.34-0.16-0.08-0.01332-0.16667-0.01999-0.26-0.02-0.08-0.01332-0.16667-0.01999-0.26-0.02-0.10667 0.00001-0.21333 0.0067-0.32 0.02-0.0933 0.00001-0.23333 0.00001-0.42 0l0.02-2.62c0-0.18665-0.0667-0.34665-0.2-0.48-0.12-0.14665-0.26667-0.21999-0.44-0.22-0.17333 0.000014-0.32 0.07335-0.44 0.22-0.12 0.13335-0.18 0.29335-0.18 0.48v2.62h-0.72c-0.0933 0.00001-0.18 0.00001-0.26 0-0.08 0.00001-0.15333 0.01334-0.22 0.04-0.14666 0.02668-0.25333 0.08001-0.32 0.16-0.0667 0.06668-0.1 0.18001-0.1 0.34 0 0.14668 0.0333 0.26001 0.1 0.34 0.08 0.06668 0.18667 0.11334 0.32 0.14 0.08 0.02668 0.16 0.04001 0.24 0.04 0.08 0.000009 0.16667 0.000009 0.26 0h0.72v9.18h1.24v-9.18c0.18667 0.000009 0.32667 0.000009 0.42 0 0.10667 0.000009 0.20667 0.0067 0.3 0.02 0.0933 0.000009 0.18 0.000009 0.26 0 0.0933-0.01332 0.18-0.02666 0.26-0.04"/>
    <path id="path4587" d="m118.32 59.725c0.33332 0.000005 0.55332-0.04 0.66-0.12 0.11999-0.09333 0.17999-0.29333 0.18-0.6-0.00001-0.63999-0.10668-1.26-0.32-1.86-0.20001-0.59999-0.49334-1.1333-0.88-1.6-0.37334-0.46666-0.83334-0.83999-1.38-1.12-0.53334-0.27999-1.1267-0.41999-1.78-0.42-0.70667 0.00001-1.3467 0.14668-1.92 0.44-0.56001 0.29334-1.04 0.68001-1.44 1.16-0.4 0.48001-0.71334 1.04-0.94 1.68-0.21334 0.62667-0.32 1.28-0.32 1.96 0 0.72 0.10666 1.4067 0.32 2.06 0.21333 0.64 0.52 1.2067 0.92 1.7 0.41333 0.48 0.91333 0.86667 1.5 1.16 0.58666 0.28 1.26 0.42 2.02 0.42 0.43999 0 0.83999-0.04667 1.2-0.14 0.37332-0.09333 0.76666-0.22 1.18-0.38l-0.28-0.94c-0.33334 0.09333-0.67334 0.18-1.02 0.26-0.33334 0.06667-0.67334 0.1-1.02 0.1-0.49334 0.000001-0.94667-0.09333-1.36-0.28-0.41334-0.2-0.77334-0.46666-1.08-0.8-0.29334-0.34666-0.52667-0.74666-0.7-1.2-0.16-0.46666-0.24-0.96-0.24-1.48h6.7m-3.56-4.74c0.47999 0.000009 0.91999 0.11334 1.32 0.34 0.39999 0.22668 0.73999 0.52668 1.02 0.9 0.27999 0.36001 0.49999 0.77334 0.66 1.24 0.15999 0.45334 0.24666 0.91334 0.26 1.38h-6.48c0.0667-0.47999 0.16666-0.95333 0.3-1.42 0.14666-0.46666 0.34666-0.87999 0.6-1.24 0.25333-0.35999 0.56666-0.64666 0.94-0.86 0.37333-0.22666 0.83333-0.33999 1.38-0.34"/>
    <path id="path4589" d="m124.59 55.165c0.23999-0.13332 0.35999-0.29999 0.36-0.5-0.00001-0.19999-0.0733-0.36666-0.22-0.5-0.14667-0.13332-0.32667-0.19999-0.54-0.2-0.18667 0.00001-0.38001 0.04001-0.58 0.12-0.18667 0.08001-0.38001 0.22668-0.58 0.44-0.18667 0.21334-0.38001 0.50668-0.58 0.88-0.20001 0.37334-0.40001 0.86001-0.6 1.46 0.04-0.50666 0.0667-0.89332 0.08-1.16 0.0267-0.27999 0.0467-0.48666 0.06-0.62 0.0133-0.14666 0.02-0.25332 0.02-0.32 0.0133-0.06666 0.02-0.13999 0.02-0.22-0.00001-0.14666-0.0667-0.26666-0.2-0.36-0.12001-0.10666-0.26667-0.15999-0.44-0.16-0.18667 0.00001-0.34 0.06001-0.46 0.18-0.12 0.12001-0.18 0.26668-0.18 0.44v9.78l1.26-0.02v-5.3c-0.00001-0.51999 0.04-0.96666 0.12-1.34 0.0933-0.38666 0.21333-0.71333 0.36-0.98 0.15999-0.26666 0.33333-0.48666 0.52-0.66 0.18666-0.17332 0.37999-0.31999 0.58-0.44 0.18666-0.10666 0.35999-0.19332 0.52-0.26 0.17333-0.07999 0.33333-0.16666 0.48-0.26"/>
   </g>
  </g>
  <g id="g4538" fill="#333" transform="matrix(0 -.47889 .47889 0 157.44 46.685)">
   <g id="g4" transform="matrix(1.25 0 0 1.25 75.604 29.351)">
    <path id="path6" fill="#333" d="m0 0.48665l0.82081-0.48665 0.81985 0.48665v38.592s-1.6407-0.9734-1.6407-0.9734v-37.619z"/>
   </g>
   <g id="g8" transform="matrix(1.25 0 0 1.25 -7.2623 4.6547)">
    <path id="path10" fill="#333" d="m1.6418 20.244l-1.6418-0.974 33.122-19.27 0.8214 0.43799v0.9733l-32.302 18.832z"/>
   </g>
   <g id="g12" transform="matrix(1.25 0 0 1.25 -7.2623 28.743)">
    <path id="path14" fill="#333" d="m1.6418 38.592l-0.82139 0.4867c0.00002 0-0.82041-0.487-0.82041-0.487v-38.592s1.6418 0.9733 1.6418 0.9733v37.619z"/>
   </g>
   <g id="g16" transform="matrix(1.25 0 0 1.25 -.079917 33.55)">
    <path id="path18" fill="#333" d="m1.6418 31.876h-1.6418v-31.876h1.6418v31.876z"/>
   </g>
   <g id="g20" transform="matrix(1.25 0 0 1.25 -6.2368 76.983)">
    <path id="path22" fill="#333" d="m33.123 18.832v0.9256l-0.8214 0.4867c0 0.001-32.302-18.784-32.302-18.784v-0.97335l0.82139-0.48665 32.302 18.832z"/>
   </g>
   <g id="g24" transform="matrix(1.25 0 0 1.25 35.167 76.983)">
    <path id="path26" fill="#333" d="m32.35 0l1.6407 0.9733-33.17 19.271c-0.00057 0.001-0.821-0.486-0.821-0.486v-0.9256l32.35-18.832z"/>
   </g>
   <g id="g28" transform="matrix(1.25 0 0 1.25 34.684 72.482)">
    <path id="path30" fill="#333" d="m27.376 0l0.87 1.46-27.426 15.962c0.00043 0-0.82-1.46-0.82-1.46l27.376-15.962z"/>
   </g>
   <g id="g40" transform="matrix(1.25 0 0 1.25 34.14 101.68)">
    <path id="path42" fill="#333" d="m1.6418 28.565h-1.6418v-28.079c0 0.00065 0.82139-0.486 0.82139-0.486l0.82043 0.48665v28.079z"/>
   </g>
   <g id="g48" transform="matrix(1.25 0 0 1.25 -37.258 76.983)">
    <path id="path50" fill="#333" d="m0.82043 15.426l-0.82043-1.46 23.996-13.966 0.8204 0.48665v0.9733l-23.996 13.966z"/>
   </g>
   <g id="g52" transform="matrix(1.25 0 0 1.25 34.14 -43.585)">
    <path id="path54" fill="#333" d="m0 0.92483l1.6418-0.92483v38.592l-0.82043 0.438-0.82139-0.438v-37.667z"/>
   </g>
   <g id="g60" transform="matrix(1.25 0 0 1.25 76.631 11.162)">
    <path id="path62" fill="#333" d="m23.321 0l0.8208 1.46-23.322 13.578-0.81985-0.4866v-0.9733l23.321-13.578z"/>
   </g>
   <g id="g64" transform="matrix(1.25 0 0 1.25 -7.2623 -67.735)">
    <path id="path66" fill="#333" d="m0 0.9733s1.6418-0.9733 1.6418-0.9733l33.122 19.32s-1.6418 0.9248-1.6418 0.9248c0-0.001-33.122-19.272-33.122-19.272z"/>
   </g>
   <g id="g80" transform="matrix(1.25 0 0 1.25 -7.2623 -101.19)">
    <path id="path82" fill="#333" d="m0 0h1.6418v26.766l-1.6418 0.973v-27.739z"/>
   </g>
   <g id="g84" transform="matrix(1.25 0 0 1.25 35.167 4.6547)">
    <path id="path86" fill="#333" d="m0 1.4113v-0.9733c0-0.00001 0.82043-0.438 0.82043-0.438l32.35 18.784v0.9733l-0.8208 0.4866c0.001 0-32.349-18.833-32.349-18.833z"/>
   </g>
   <g id="g88" transform="matrix(1.25 0 0 1.25 34.684 12.683)">
    <path id="path90" fill="#333" d="m0 1.46l0.82043-1.46 27.426 15.963-0.87 1.4113-27.376-15.914z"/>
   </g>
  </g>
  <g id="g5763" transform="matrix(.79915 0 0 .79915 1.596 23.6)">
   <g id="group-liquid-3" fill="#c00" transform="matrix(1.0374 0 0 1 202.17 -18.04)">
    <path id="liquid-bottom-8" d="m14.937 27.974-3.1393 5.4409c-1.5149 2.6352-1.8871 3.4979-1.4643 4.7949 0.56132 1.7218 2.8712 3.6751 13.207 3.6751 7.9766 0 13.074-0.82147 14.155-3.6177 0.37824-0.97803-0.0049-2.4668-0.74651-3.7038l-3.8938-6.5032c-0.08626 0.25028-0.18156 0.42473-0.33969 0.58859-0.40021 0.41472-0.97036 0.70989-1.7386 0.94749-1.5365 0.47521-3.8107 0.74651-6.977 0.74651-3.1959 0-5.476-0.27104-7.0057-0.74651-0.76483-0.23773-1.4076-0.59673-1.6822-0.92955-0.15415-0.18682-0.27946-0.25008-0.37532-0.69268z"/>
    <path id="liquid-top-3" style="block-progression:tb;color:#000000;text-transform:none;text-indent:0" d="m24 24.998c2.4407 0 4.6534 0.27976 6.2303 0.72038 0.78842 0.22031 1.4197 0.48814 1.8301 0.75931 0.41046 0.27117 0.56462 0.51754 0.56462 0.72038 0 0.24692-0.11947 0.47968-0.42833 0.73984-0.30886 0.26017-0.81345 0.52175-1.5186 0.73985-1.4104 0.43619-3.6099 0.72038-6.6781 0.72038-3.0976 0-5.3145-0.28444-6.717-0.72038-0.70124-0.21797-1.195-0.4803-1.4992-0.73985-0.30414-0.25954-0.40886-0.49086-0.40886-0.73984 0-0.20284 0.15416-0.4492 0.56462-0.72038 0.41046-0.27117 1.0417-0.539 1.8301-0.75931 1.577-0.44 3.789-0.72 6.23-0.72z"/>
    <path id="path4613" d="m19.751 34.722c0.55256 0.09973 1.1085 0.18129 1.6662 0.24385 0.38824 1.2148 0.8518 2.4215 1.3937 3.6111-1.1841-1.2191-2.2018-2.5181-3.06-3.8549zm4.1863 4.4441c-0.7039-1.3522-1.3003-2.7335-1.7939-4.1297 1.2079 0.09924 2.4208 0.108 3.6222 0.01778-0.49891 1.3896-1.1113 2.7643-1.8283 4.1119zm-2.43-4.8665c-0.58109-0.06479-1.1605-0.15068-1.7363-0.25664 0.60185-0.57208 1.1672-1.1662 1.6924-1.7786 0.40261 0.04967 0.80571 0.08857 1.2084 0.11625-0.35871 0.64891-0.74742 1.2893-1.1645 1.919zm3.5637 4.2848c0.55419-1.185 1.0281-2.3864 1.4159-3.5965 0.55352-0.06028 1.1039-0.14213 1.6494-0.24638-0.83472 1.3413-1.8667 2.6323-3.0654 3.8429zm-2.8324-4.2145c0.39693-0.64223 0.76459-1.2941 1.1014-1.9537 0.42047 0.01582 0.84 0.01911 1.2576 0.0093 0.32854 0.66365 0.68737 1.3188 1.0772 1.9628-1.1383 0.08281-2.2889 0.074-3.4363-0.01849zm4.1605-0.04683c-0.41114-0.62996-0.79098-1.2721-1.1403-1.9241 0.39709-0.02269 0.79194-0.05757 1.1837-0.10509 0.51233 0.6131 1.0673 1.2049 1.6662 1.7702-0.56454 0.11103-1.1351 0.197-1.7096 0.25896zm0.33886-2.6068c-0.06466-0.08071-0.15268-0.11609-0.23898-0.10494-1.6569 0.21399-3.3801 0.19058-5.0959-0.03196-0.08936-0.01159-0.18052 0.02361-0.24699 0.10442-0.70109 0.80655-1.4723 1.5802-2.3054 2.3118-0.12214 0.10177-0.15379 0.28265-0.07361 0.42386 1.2323 2.1049 2.8418 4.1436 4.8545 5.9614 0.07551 0.0692 0.18399 0.107 0.29927 0.1073 0.1153 0.000297 0.2243-0.03693 0.30052-0.10573 2.033-1.8068 3.6911-3.829 4.8627-5.9562 0.07615-0.14265 0.04039-0.32287-0.08197-0.42229-0.83558-0.71548-1.5927-1.482-2.2741-2.2877" fill="#333"/>
   </g>
   <g id="group-flask-front-4" transform="translate(203.03 -18.271)" stroke="#333" fill="none">
    <path id="flask-mouth-87" stroke-linejoin="round" d="m32.426 8.5a8.213 1.5 0 1 1 -16.426 0 8.213 1.5 0 1 1 16.426 0z" transform="matrix(.62274 0 0 .77366 8.9215 -.5761)" stroke-linecap="round" stroke-width=".72034"/>
    <path id="flask-mouth-reflection-2-7" stroke-linejoin="round" d="m28.294 9.1024c-1.583 0.27104-2.0556 0.49632-4.2902 0.49632s-2.9549-0.31373-4.3143-0.47707" stroke-linecap="round" stroke-width=".5"/>
    <path id="flask-border-6" d="m19.228 5.6024c-0.95432 0.25-1.496 3.0385 0.47716 3.5v8l-9.9895 16.918c-1.1937 2.023-2.5237 5.184 1.4295 7.189 2.553 1.063 7.091 1.791 12.855 1.791 5.7644 0 10.302-0.72809 12.855-1.7914 3.9528-2.0047 2.6228-5.1659 1.4285-7.1886l-9.9895-16.918v-8c2.1279-0.54987 1.4315-3.25 0.47716-3.5" stroke-width=".5"/>
   </g>
  </g>
 </g>
</svg>
