<?xml version="1.0" encoding="UTF-8" standalone="no"?>
<!-- Created with Inkscape (http://www.inkscape.org/) -->
<svg id="svg2676" xmlns:rdf="http://www.w3.org/1999/02/22-rdf-syntax-ns#" xmlns="http://www.w3.org/2000/svg" height="48" width="48" version="1.1" xmlns:cc="http://creativecommons.org/ns#" xmlns:dc="http://purl.org/dc/elements/1.1/">
 <title id="title3888">Erlenmeyer flask with green liquid</title>
 <metadata id="metadata2681">
  <rdf:RDF>
   <cc:Work rdf:about="">
    <dc:format>image/svg+xml</dc:format>
    <dc:type rdf:resource="http://purl.org/dc/dcmitype/StillImage"/>
    <cc:license rdf:resource="http://creativecommons.org/licenses/GPL/2.0/"/>
    <dc:title>Erlenmeyer flask with green liquid</dc:title>
    <dc:date>2015-07-31</dc:date>
    <dc:creator>
     <cc:Agent>
      <dc:title>Günter Kits (kyber@kits.ee)</dc:title>
     </cc:Agent>
    </dc:creator>
    <dc:subject>
     <rdf:Bag>
      <rdf:li>Erlenmeyer flask</rdf:li>
      <rdf:li>conical flask</rdf:li>
      <rdf:li>chemistry flask</rdf:li>
      <rdf:li>flask</rdf:li>
      <rdf:li>jar</rdf:li>
     </rdf:Bag>
    </dc:subject>
    <dc:contributor>
     <cc:Agent>
      <dc:title>Based on artwork by Frederic Bellaiche and André Wyrwa.</dc:title>
     </cc:Agent>
    </dc:contributor>
   </cc:Work>
  </rdf:RDF>
 </metadata>
 <g id="group-liquid" fill="#73d216" transform="matrix(1.0374 0 0 1 -.86032 .23125)">
  <path id="liquid-bottom" d="m14.937 27.974-3.1393 5.4409c-1.5149 2.6352-1.8871 3.4979-1.4643 4.7949 0.56132 1.7218 2.8712 3.6751 13.207 3.6751 7.9766 0 13.074-0.82147 14.155-3.6177 0.37824-0.97803-0.0049-2.4668-0.74651-3.7038l-3.8938-6.5032c-0.08626 0.25028-0.18156 0.42473-0.33969 0.58859-0.40021 0.41472-0.97036 0.70989-1.7386 0.94749-1.5365 0.47521-3.8107 0.74651-6.977 0.74651-3.1959 0-5.476-0.27104-7.0057-0.74651-0.76483-0.23773-1.4076-0.59673-1.6822-0.92955-0.15415-0.18682-0.27946-0.25008-0.37532-0.69268z"/>
  <path id="liquid-top" style="block-progression:tb;color:#000000;text-transform:none;text-indent:0" d="m24 24.998c2.4407 0 4.6534 0.27976 6.2303 0.72038 0.78842 0.22031 1.4197 0.48814 1.8301 0.75931 0.41046 0.27117 0.56462 0.51754 0.56462 0.72038 0 0.24692-0.11947 0.47968-0.42833 0.73984-0.30886 0.26017-0.81345 0.52175-1.5186 0.73985-1.4104 0.43619-3.6099 0.72038-6.6781 0.72038-3.0976 0-5.3145-0.28444-6.717-0.72038-0.70124-0.21797-1.195-0.4803-1.4992-0.73985-0.30414-0.25954-0.40886-0.49086-0.40886-0.73984 0-0.20284 0.15416-0.4492 0.56462-0.72038 0.41046-0.27117 1.0417-0.539 1.8301-0.75931 1.577-0.44 3.789-0.72 6.23-0.72z"/>
 </g>
 <g id="group-flask-front" stroke="#000" fill="none">
  <path id="flask-mouth" stroke-linejoin="round" d="m32.426 8.5a8.213 1.5 0 1 1 -16.426 0 8.213 1.5 0 1 1 16.426 0z" transform="matrix(.62274 0 0 .77366 8.9215 -.5761)" stroke-linecap="round" stroke-width=".72034"/>
  <path id="flask-mouth-reflection-2" stroke-linejoin="round" stroke-width=".5" stroke-linecap="round" d="m28.294 9.1024c-1.583 0.27104-2.0556 0.49632-4.2902 0.49632s-2.9549-0.31373-4.3143-0.47707"/>
  <path id="flask-border" stroke-width=".5" d="m19.228 5.6024c-0.95432 0.25-1.496 3.0385 0.47716 3.5v8l-9.9895 16.918c-1.1937 2.023-2.5237 5.184 1.4295 7.189 2.553 1.063 7.091 1.791 12.855 1.791 5.7644 0 10.302-0.72809 12.855-1.7914 3.9528-2.0047 2.6228-5.1659 1.4285-7.1886l-9.9895-16.918v-8c2.1279-0.54987 1.4315-3.25 0.47716-3.5"/>
 </g>
</svg>
