<?xml version="1.0" encoding="UTF-8" standalone="no"?>
<!-- Created with Inkscape (http://www.inkscape.org/) -->
<svg id="svg2676" xmlns:rdf="http://www.w3.org/1999/02/22-rdf-syntax-ns#" xmlns="http://www.w3.org/2000/svg" height="48" width="48" version="1.1" xmlns:cc="http://creativecommons.org/ns#" xmlns:xlink="http://www.w3.org/1999/xlink" xmlns:dc="http://purl.org/dc/elements/1.1/">
 <title id="title3053">Empty Erlenmeyer flask</title>
 <defs id="defs2678">
  <filter id="filter3395-3" height="2.4183" width="1.1138" y="-.70915" x="-.056899" color-interpolation-filters="sRGB">
   <feGaussianBlur id="feGaussianBlur3397-9" stdDeviation="0.97980729"/>
  </filter>
  <linearGradient id="linearGradient8752-5" y2="23.301" gradientUnits="userSpaceOnUse" x2="31.603" gradientTransform="translate(0,1)" y1="24.097" x1="20.993">
   <stop id="stop8663-5" stop-color="#cdcdcd" offset="0"/>
   <stop id="stop8669-9" stop-color="#fff" stop-opacity=".31624" offset=".5"/>
   <stop id="stop8665-1" stop-color="#d6d6d6" offset="1"/>
  </linearGradient>
  <radialGradient id="radialGradient8750-9" gradientUnits="userSpaceOnUse" cy="39.503" cx="27.659" gradientTransform="matrix(-.37671 -.25718 .15114 -.22138 31.387 52.921)" r="17.255">
   <stop id="stop8673-8" stop-color="#dadad6" offset="0"/>
   <stop id="stop9083-0" stop-color="#e4e4e1" stop-opacity=".49804" offset=".5"/>
   <stop id="stop8675-5" stop-color="#dadad6" offset="1"/>
  </radialGradient>
  <linearGradient id="linearGradient5641-7" y2="35.051" gradientUnits="userSpaceOnUse" x2="25.146" y1="38.94" x1="25.279">
   <stop id="stop9089-6" stop-color="#fff" offset="0"/>
   <stop id="stop9091-0" stop-color="#f2f2f2" stop-opacity="0" offset="1"/>
  </linearGradient>
  <linearGradient id="linearGradient3887" x1="19.96" gradientUnits="userSpaceOnUse" x2="23.871" gradientTransform="matrix(.62274 0 0 .77366 8.9215 -.57595)" y1="8.2505" y2="8.9535">
   <stop id="stop8673-3" stop-color="#dadad6" offset="0"/>
   <stop id="stop9083-1" stop-color="#e4e4e1" stop-opacity=".66667" offset=".5"/>
   <stop id="stop8675-8" stop-color="#dadad6" offset="1"/>
  </linearGradient>
  <radialGradient id="radialGradient3908" gradientUnits="userSpaceOnUse" cy="-.7234" cx="23.882" gradientTransform="matrix(.38876 .0053107 -.0039945 .14454 14.648 16.522)" r="15.475">
   <stop id="stop8728-9" stop-color="#fff" stop-opacity="0" offset="0"/>
   <stop id="stop8730-1" stop-color="#fff" stop-opacity="0" offset=".6"/>
   <stop id="stop8732-3" stop-color="#fff" offset=".78077"/>
   <stop id="stop8734-8" stop-color="#fff" stop-opacity="0" offset="1"/>
  </radialGradient>
  <linearGradient id="linearGradient8714-3" y2="6.8438" gradientUnits="userSpaceOnUse" x2="27.844" gradientTransform="matrix(1.056,0,0,1.3455,-1.3458,-1.4525)" y1="7.1875" x1="25">
   <stop id="stop9077-5" stop-color="#cdcdcd" offset="0"/>
   <stop id="stop9079-8" stop-color="#fff" stop-opacity=".31624" offset=".70831"/>
   <stop id="stop9081-6" stop-color="#d6d6d6" offset="1"/>
  </linearGradient>
 </defs>
 <metadata id="erlenmeyer-flask">
  <rdf:RDF>
   <cc:Work rdf:about="">
    <dc:format>image/svg+xml</dc:format>
    <dc:type rdf:resource="http://purl.org/dc/dcmitype/StillImage"/>
    <cc:license rdf:resource="http://creativecommons.org/licenses/GPL/2.0/"/>
    <dc:title>Empty Erlenmeyer flask</dc:title>
    <dc:date>August, 2015</dc:date>
    <dc:creator>
     <cc:Agent>
      <dc:title>Günter Kits (kyber@kits.ee)</dc:title>
     </cc:Agent>
    </dc:creator>
    <dc:subject>
     <rdf:Bag>
      <rdf:li>Erlenmeyer flask</rdf:li>
      <rdf:li>conical flask</rdf:li>
      <rdf:li>chemistry flask</rdf:li>
      <rdf:li>flask</rdf:li>
      <rdf:li>jar</rdf:li>
     </rdf:Bag>
    </dc:subject>
    <dc:contributor>
     <cc:Agent>
      <dc:title>Based on artwork by Frederic Bellaiche and André Wyrwa.</dc:title>
     </cc:Agent>
    </dc:contributor>
   </cc:Work>
   <cc:License rdf:about="http://creativecommons.org/licenses/GPL/2.0/">
    <cc:permits rdf:resource="http://web.resource.org/cc/Reproduction"/>
    <cc:permits rdf:resource="http://web.resource.org/cc/Distribution"/>
    <cc:requires rdf:resource="http://web.resource.org/cc/Notice"/>
    <cc:permits rdf:resource="http://web.resource.org/cc/DerivativeWorks"/>
    <cc:requires rdf:resource="http://web.resource.org/cc/ShareAlike"/>
    <cc:requires rdf:resource="http://web.resource.org/cc/SourceCode"/>
   </cc:License>
  </rdf:RDF>
 </metadata>
 <g id="group-shadow">
  <path id="shadow" opacity=".4" style="color:#000000" d="m44.402 41.57a20.664 1.658 0 1 1 -41.329 0 20.664 1.658 0 1 1 41.329 0z" fill-rule="evenodd" transform="matrix(.91962 0 0 2.1521 2.2376 -47.98)" filter="url(#filter3395-3)"/>
 </g>
 <g id="group-flask-back">
  <path id="flask-back" opacity=".5" d="m18.715 6.0049c-0.504 0.4811-0.917 2.9012 0.99 3.0975v8l-9.9895 16.918c-1.1937 2.023-2.5237 5.184 1.4295 7.189 2.553 1.063 7.091 1.791 12.855 1.791 5.7644 0 10.302-0.72809 12.855-1.7914 3.9528-2.0047 2.6228-5.1659 1.4285-7.1886l-9.9895-16.918v-8c1.9069-0.19632 1.4487-2.9747 0.89007-3.1043-1.1899 1.6577-9.583 1.3994-10.469 0.00677z" fill="url(#linearGradient8752-5)"/>
  <path id="flask-bottom" opacity=".5" stroke-linejoin="round" d="m38.315 38c0 2.209-4.409 4-14.315 4-10 0-14.315-1.791-14.315-4 0.0002-2.209 6.409-4 14.315-4 7.9059 0 14.315 1.7909 14.315 4z" stroke-opacity=".5" stroke="#fff" stroke-linecap="round" fill="url(#radialGradient8750-9)"/>
 </g>
 <g id="group-flask-front">
  <path id="flask-bottom-reflection-1" opacity=".5" d="m24 33.531c-3.9883 0-7.6 0.447-10.25 1.1875-1.325 0.37025-2.3976 0.82189-3.1875 1.3438-0.7894 0.522-1.3432 1.159-1.3432 1.938 0 0.70494 0.36658 1.3657 1 1.9062 0.63342 0.54053 1.5468 1.001 2.75 1.375 2.4064 0.74801 6.0034 1.1875 11.031 1.1875 4.9812 0 8.5828-0.4399 11-1.1875 1.2086-0.3738 2.1408-0.83548 2.7812-1.375 0.6405-0.53952 1-1.198 1-1.9062 0-0.77901-0.55383-1.4156-1.3438-1.9375-0.789-0.521-1.862-0.973-3.187-1.343-2.65-0.741-6.262-1.188-10.25-1.188zm0 0.9375c3.9175 0 7.4691 0.44903 10 1.1562 1.2655 0.35361 2.2787 0.7835 2.9375 1.2188 0.65882 0.43525 0.90625 0.83069 0.90625 1.1562 0 0.39632-0.19176 0.76991-0.6875 1.1875s-1.3056 0.83744-2.4375 1.1875c-2.263 0.701-5.793 1.157-10.718 1.157-4.972 0-8.53-0.456-10.781-1.156-1.126-0.35-1.918-0.771-2.407-1.187-0.488-0.417-0.656-0.788-0.656-1.188 0-0.32556 0.24743-0.721 0.90625-1.1562 0.65882-0.43525 1.672-0.86514 2.9375-1.2188 2.5309-0.70722 6.0825-1.1562 10-1.1562z" style="block-progression:tb;color:#000000;text-transform:none;text-indent:0" fill="url(#linearGradient5641-7)"/>
  <path id="flask-mouth-8" opacity=".5" d="m29.114 6.0002a5.1146 1.1605 0 0 1 -10.229 0 5.1146 1.1605 0 1 1 10.229 0z" fill="url(#linearGradient3887)"/>
  <path id="flask-mouth" stroke-linejoin="round" d="m32.426 8.5a8.213 1.5 0 1 1 -16.426 0 8.213 1.5 0 1 1 16.426 0z" transform="matrix(.62274 0 0 .77366 8.9215 -.5761)" stroke="#999" stroke-linecap="round" stroke-width=".72034" fill="none"/>
  <path id="flask-left-reflection" d="m12.22 41.089c-1.5026-0.7955-0.90598-3.2262 0.33146-4.9939 1.2374-1.7678 8.8692-17.324 9.3111-18.385v-7.9808l1.9281 0.11987 0.04419 8.2047s-3.6877 13.659-5.6044 20.648c-0.32031 1.1681-1.2816 2.2981 0.26516 3.6239-3.2704-0.46404-4.088-0.55243-6.2756-1.2374z" fill-opacity=".037736"/>
  <path id="flask-right-reflection" d="m37.07 40.334c1.5006-0.79879 0.83969-3.3146-0.39775-5.0823-1.2374-1.7678-8.8692-17.324-9.3111-18.385v-7.3381l-0.94371 0.16674-0.02857 7.5148s5.1565 13.815 7.0732 20.805c0.32031 1.1681 1.2816 2.2981-0.26516 3.6239 3.2704-0.46404 1.8496-0.22814 3.8731-1.3053z" fill-opacity=".056604"/>
  <path id="flask-mouth-reflection-2" stroke-linejoin="round" d="m28.294 9.1024c-1.583 0.27104-2.0556 0.49632-4.2902 0.49632s-2.9549-0.31373-4.3143-0.47707" stroke="#999" stroke-linecap="round" stroke-width=".5" fill="none"/>
  <path id="flask-neck-reflection" opacity=".2" stroke-linejoin="round" d="m28.473 17.147c-1.0371 0.82843-3.6067 0.91984-4.5285 0.91984-1.0475 0-2.5486 0.06326-4.5285-0.83146" stroke="url(#radialGradient3908)" stroke-width="1.0537" fill="none"/>
  <path id="flask-base-reflection-1" opacity=".1" stroke-linejoin="round" d="m38.579 36.309c-3.3236 1.8968-11.683 2.6061-14.637 2.6061-3.3569 0-8.0421-0.35516-14.387-2.4037" stroke="#fff" stroke-linecap="round" stroke-width="2" fill="none"/>
  <path id="flash-mouth-reflection-1" opacity=".5" d="m18.796 6.3955c-0.41823 1.1755-0.16625 2.2548 1.1755 2.5165 1.4182 0.27653 2.3071 0.42429 3.9619 0.45828 1.5529 0.0319 2.9335-0.2341 4.0479-0.4496 0.728-0.1407 1.101-0.4423 1.306-0.8735 0.315-0.6642 0.089-1.3322-0.066-1.6734-0.586 0.6739-2.911 1.0675-5.418 1.0398-2.523-0.0279-4.424-0.4255-5.007-1.0181z" fill="url(#linearGradient8714-3)"/>
  <path id="flask-base-reflection-2" opacity=".1" stroke-linejoin="round" d="m38.579 38.342c-3.3236 1.8968-11.683 2.5177-14.637 2.5177-3.3569 0-8.0421-0.26677-14.387-2.3153" stroke="#2e3436" stroke-linecap="round" stroke-width="2" fill="none"/>
  <path id="flask-border" stroke="#999" stroke-width=".5" fill="none" d="m19.228 5.6024c-0.95432 0.25-1.496 3.0385 0.47716 3.5v8l-9.9895 16.918c-1.1937 2.023-2.5237 5.184 1.4295 7.189 2.553 1.063 7.091 1.791 12.855 1.791 5.7644 0 10.302-0.72809 12.855-1.7914 3.9528-2.0047 2.6228-5.1659 1.4285-7.1886l-9.9895-16.918v-8c2.1279-0.54987 1.4315-3.25 0.47716-3.5"/>
 </g>
</svg>
