<?xml version="1.0" encoding="UTF-8" standalone="no"?>
<!-- Created with Inkscape (http://www.inkscape.org/) -->
<svg id="svg2676" xmlns:rdf="http://www.w3.org/1999/02/22-rdf-syntax-ns#" xmlns="http://www.w3.org/2000/svg" height="48" width="48" version="1.1" xmlns:cc="http://creativecommons.org/ns#" xmlns:dc="http://purl.org/dc/elements/1.1/">
 <title id="title3888">Empty Erlenmeyer flask</title>
 <metadata id="metadata2681">
  <rdf:RDF>
   <cc:Work rdf:about="">
    <dc:format>image/svg+xml</dc:format>
    <dc:type rdf:resource="http://purl.org/dc/dcmitype/StillImage"/>
    <cc:license rdf:resource="http://creativecommons.org/licenses/GPL/2.0/"/>
    <dc:title>Empty Erlenmeyer flask</dc:title>
    <dc:date>2015-07-31</dc:date>
    <dc:creator>
     <cc:Agent>
      <dc:title>Günter Kits (kyber@kits.ee)</dc:title>
     </cc:Agent>
    </dc:creator>
    <dc:subject>
     <rdf:Bag>
      <rdf:li>Erlenmeyer flask</rdf:li>
      <rdf:li>conical flask</rdf:li>
      <rdf:li>chemistry flask</rdf:li>
      <rdf:li>flask</rdf:li>
      <rdf:li>jar</rdf:li>
     </rdf:Bag>
    </dc:subject>
    <dc:contributor>
     <cc:Agent>
      <dc:title>Based on artwork by Frederic Bellaiche and André Wyrwa.</dc:title>
     </cc:Agent>
    </dc:contributor>
   </cc:Work>
  </rdf:RDF>
 </metadata>
 <g id="group-flask-front" stroke="#000" fill="none">
  <path id="flask-mouth" stroke-linejoin="round" d="m32.426 8.5a8.2129 1.5 0 1 1 -16.426 0 8.2129 1.5 0 1 1 16.426 0z" transform="matrix(.62274 0 0 .77366 8.9215 -.57610)" stroke-linecap="round" stroke-width=".72034"/>
  <path id="flask-mouth-reflection-2" stroke-linejoin="round" stroke-width=".5" stroke-linecap="round" d="m28.294 9.1024c-1.583 0.27104-2.0556 0.49632-4.2902 0.49632s-2.9549-0.31373-4.3143-0.47707"/>
  <path id="flask-border" stroke-width=".5" d="m19.228 5.6024c-0.95432 0.25-1.496 3.0385 0.47716 3.5v8l-9.9895 16.918c-1.1937 2.023-2.5237 5.184 1.4295 7.189 2.553 1.063 7.091 1.791 12.855 1.791 5.7644 0 10.302-0.72809 12.855-1.7914 3.9528-2.0047 2.6228-5.1659 1.4285-7.1886l-9.9895-16.918v-8c2.1279-0.54987 1.4315-3.25 0.47716-3.5"/>
 </g>
</svg>
