<?xml version="1.0" encoding="UTF-8" standalone="no"?>
<!-- Created with Inkscape (http://www.inkscape.org/) -->
<svg id="svg2676" xmlns:rdf="http://www.w3.org/1999/02/22-rdf-syntax-ns#" xmlns="http://www.w3.org/2000/svg" height="80" width="240" version="1.1" xmlns:cc="http://creativecommons.org/ns#" xmlns:xlink="http://www.w3.org/1999/xlink" xmlns:dc="http://purl.org/dc/elements/1.1/">
 <title id="title4509">Jekyll Laboratory logotype</title>
 <defs id="defs2678">
  <filter id="filter3395-7" height="2.4183" width="1.1138" y="-.70915" x="-.056899" color-interpolation-filters="sRGB">
   <feGaussianBlur id="feGaussianBlur3397-56" stdDeviation="0.97980729"/>
  </filter>
  <filter id="filter3395-7-5-9" width="1.1138" y="-.70915" x="-.056899" height="2.4183" color-interpolation-filters="sRGB">
   <feGaussianBlur id="feGaussianBlur3397-2-8-6" stdDeviation="0.97980729"/>
  </filter>
  <linearGradient id="linearGradient3558-0" y2="23.301" gradientUnits="userSpaceOnUse" x2="31.603" gradientTransform="translate(0,1)" y1="24.097" x1="20.993">
   <stop id="stop8663-0-3" stop-color="#cdcdcd" offset="0"/>
   <stop id="stop8669-3-0" stop-color="#fff" stop-opacity=".31624" offset=".5"/>
   <stop id="stop8665-9-4" stop-color="#d6d6d6" offset="1"/>
  </linearGradient>
  <radialGradient id="radialGradient3560-2" gradientUnits="userSpaceOnUse" cy="39.503" cx="27.659" gradientTransform="matrix(-.37671 -.25718 .15114 -.22138 31.387 52.921)" r="17.255">
   <stop id="stop8673-4-0-6" stop-color="#dadad6" offset="0"/>
   <stop id="stop9083-5-3-4" stop-color="#e4e4e1" stop-opacity=".49804" offset=".5"/>
   <stop id="stop8675-87-6" stop-color="#dadad6" offset="1"/>
  </radialGradient>
  <linearGradient id="linearGradient3562-2" y2="31.206" gradientUnits="userSpaceOnUse" x2="33.057" y1="32.886" x1="25.367">
   <stop id="stop6612-8-1" stop-color="#73d216" offset="0"/>
   <stop id="stop6618-9-1" stop-color="#81e71e" stop-opacity=".49804" offset=".5"/>
   <stop id="stop6614-6-6" stop-color="#73d216" offset="1"/>
  </linearGradient>
  <radialGradient id="radialGradient3564-2" gradientUnits="userSpaceOnUse" cy="27.95" cx="21.75" gradientTransform="matrix(.43478 -.1087 .061866 .24746 10.564 22.928)" r="8.625">
   <stop id="stop6590-6-7-8" stop-color="#66b913" offset="0"/>
   <stop id="stop6592-0-5-1" stop-color="#72d116" offset="1"/>
  </radialGradient>
  <linearGradient id="linearGradient3566-7" y2="35.051" gradientUnits="userSpaceOnUse" x2="25.146" y1="38.94" x1="25.279">
   <stop id="stop9089-3-7" stop-color="#fff" offset="0"/>
   <stop id="stop9091-1-9" stop-color="#f2f2f2" stop-opacity="0" offset="1"/>
  </linearGradient>
  <linearGradient id="linearGradient3568-4" y2="8.9535" gradientUnits="userSpaceOnUse" x2="23.871" gradientTransform="matrix(.62274 0 0 .77366 8.9215 -.57595)" y1="8.2505" x1="19.96">
   <stop id="stop8673-3-7-5" stop-color="#dadad6" offset="0"/>
   <stop id="stop9083-1-9-6" stop-color="#e4e4e1" stop-opacity=".66667" offset=".5"/>
   <stop id="stop8675-8-5-7" stop-color="#dadad6" offset="1"/>
  </linearGradient>
  <radialGradient id="radialGradient3570-6" gradientUnits="userSpaceOnUse" cy="-.7234" cx="23.882" gradientTransform="matrix(.38876 .0053107 -.0039945 .14454 14.648 16.522)" r="15.475">
   <stop id="stop8728-2-3" stop-color="#fff" stop-opacity="0" offset="0"/>
   <stop id="stop8730-0-9" stop-color="#fff" stop-opacity="0" offset=".6"/>
   <stop id="stop8732-2-6" stop-color="#fff" offset=".78077"/>
   <stop id="stop8734-3-2-8" stop-color="#fff" stop-opacity="0" offset="1"/>
  </radialGradient>
  <linearGradient id="linearGradient3572-9" y2="6.8438" gradientUnits="userSpaceOnUse" x2="27.844" gradientTransform="matrix(1.056,0,0,1.3455,-1.3458,-1.4525)" y1="7.1875" x1="25">
   <stop id="stop9077-3-0" stop-color="#cdcdcd" offset="0"/>
   <stop id="stop9079-8-1-1" stop-color="#fff" stop-opacity=".31624" offset=".70831"/>
   <stop id="stop9081-5-9-6" stop-color="#d6d6d6" offset="1"/>
  </linearGradient>
  <filter id="filter3395-1-7" width="1.1138" y="-.70915" x="-.056899" height="2.4183" color-interpolation-filters="sRGB">
   <feGaussianBlur id="feGaussianBlur3397-4-9" stdDeviation="0.97980729"/>
  </filter>
  <linearGradient id="linearGradient3826-3" y2="31.206" xlink:href="#linearGradient8980-5-4" gradientUnits="userSpaceOnUse" x2="33.057" y1="32.886" x1="25.367"/>
  <linearGradient id="linearGradient8980-5-4">
   <stop id="stop8982-2-3" stop-color="#6092c9" offset="0"/>
   <stop id="stop8984-9-5" stop-color="#709dce" stop-opacity=".68376" offset="1"/>
  </linearGradient>
  <radialGradient id="radialGradient3828-0" xlink:href="#linearGradient8980-5-4" gradientUnits="userSpaceOnUse" cy="27.95" cx="21.75" gradientTransform="matrix(.43478 -.1087 .061866 .24746 10.564 22.928)" r="8.625"/>
  <filter id="filter3395-2-4-4-1" height="2.4183" width="1.1138" y="-.70915" x="-.056899" color-interpolation-filters="sRGB">
   <feGaussianBlur id="feGaussianBlur3397-4-2-9-1" stdDeviation="0.97980729"/>
  </filter>
 </defs>
 <metadata id="metadata2681">
  <rdf:RDF>
   <cc:Work rdf:about="">
    <dc:format>image/svg+xml</dc:format>
    <dc:type rdf:resource="http://purl.org/dc/dcmitype/StillImage"/>
    <cc:license rdf:resource="https://github.com/jekyllrc/brand/blob/master/LICENSE.markdown"/>
    <dc:title>Jekyll Laboratory logotype</dc:title>
    <dc:date>2015-08-01</dc:date>
    <dc:creator>
     <cc:Agent>
      <dc:title>Günter Kits (kyber@kits.ee)</dc:title>
     </cc:Agent>
    </dc:creator>
    <dc:subject>
     <rdf:Bag>
      <rdf:li>jekyll laboratory</rdf:li>
     </rdf:Bag>
    </dc:subject>
    <dc:contributor>
     <cc:Agent>
      <dc:title/>
     </cc:Agent>
    </dc:contributor>
    <dc:source>https://github.com/jekyllrc/brand</dc:source>
    <dc:description>Logotype with title.</dc:description>
   </cc:Work>
  </rdf:RDF>
 </metadata>
 <g id="g5068" transform="translate(13.851 6.3492)">
  <g id="g3521" transform="translate(1.1255 4.1456)">
   <g id="g3803" transform="matrix(-.38080 -.92466 .92466 -.38080 271.67 196.4)">
    <g id="group-flask-back-7" transform="translate(177.44 -71.662)">
     <path id="flask-back-80" opacity=".5" fill="url(#linearGradient3558-0)" d="m18.715 6.0049c-0.504 0.4811-0.917 2.9012 0.99 3.0975v8l-9.9895 16.918c-1.1937 2.023-2.5237 5.184 1.4295 7.189 2.553 1.063 7.091 1.791 12.855 1.791 5.7644 0 10.302-0.72809 12.855-1.7914 3.9528-2.0047 2.6228-5.1659 1.4285-7.1886l-9.99-16.918v-8c1.9069-0.19632 1.4487-2.9747 0.89007-3.1043-1.1899 1.6577-9.583 1.3994-10.469 0.00677z"/>
     <path id="flask-bottom-5" opacity=".5" stroke-linejoin="round" d="m38.315 38c0 2.209-4.409 4-14.315 4-10 0-14.315-1.791-14.315-4 0.0002-2.209 6.409-4 14.315-4 7.9059 0 14.315 1.7909 14.315 4z" stroke-opacity=".5" stroke="#fff" stroke-linecap="round" fill="url(#radialGradient3560-2)"/>
    </g>
    <g id="group-flask-front-6" transform="translate(177.44 -71.662)">
     <path id="flask-bottom-reflection-1-9" opacity=".5" style="block-progression:tb;color:#000000;text-transform:none;text-indent:0" fill="url(#linearGradient3566-7)" d="m24 33.531c-3.9883 0-7.6 0.447-10.25 1.1875-1.325 0.37025-2.3976 0.82189-3.1875 1.3438-0.7894 0.522-1.3432 1.159-1.3432 1.938 0 0.70494 0.36658 1.3657 1 1.9062 0.63342 0.54053 1.5468 1.001 2.75 1.375 2.4064 0.74801 6.0034 1.1875 11.031 1.1875 4.9812 0 8.5828-0.4399 11-1.1875 1.2086-0.3738 2.1408-0.83548 2.7812-1.375 0.6405-0.53952 1-1.198 1-1.9062 0-0.77901-0.55383-1.4156-1.3438-1.9375-0.789-0.521-1.862-0.973-3.187-1.343-2.65-0.741-6.262-1.188-10.25-1.188zm0 0.9375c3.9175 0 7.4691 0.44903 10 1.1562 1.2655 0.35361 2.2787 0.7835 2.9375 1.2188 0.65882 0.43525 0.90625 0.83069 0.90625 1.1562 0 0.39632-0.19176 0.76991-0.6875 1.1875s-1.3056 0.83744-2.4375 1.1875c-2.263 0.701-5.793 1.157-10.718 1.157-4.972 0-8.53-0.456-10.781-1.156-1.126-0.35-1.918-0.771-2.407-1.187-0.488-0.417-0.656-0.788-0.656-1.188 0-0.32556 0.24743-0.721 0.90625-1.1562 0.65882-0.43525 1.672-0.86514 2.9375-1.2188 2.5309-0.70722 6.0825-1.1562 10-1.1562z"/>
     <path id="flask-mouth-8-3" opacity=".5" fill="url(#linearGradient3568-4)" d="m29.114 6.0002a5.1146 1.1605 0 0 1 -10.229 0 5.1146 1.1605 0 1 1 10.229 0z"/>
     <path id="flask-mouth-6" stroke-linejoin="round" d="m32.426 8.5a8.213 1.5 0 1 1 -16.426 0 8.213 1.5 0 1 1 16.426 0z" transform="matrix(.62274 0 0 .77366 8.9215 -.5761)" stroke="#999" stroke-linecap="round" stroke-width=".72034" fill="none"/>
     <path id="flask-left-reflection-7" fill-opacity=".037736" d="m12.22 41.089c-1.5026-0.7955-0.90598-3.2262 0.33146-4.9939 1.2374-1.7678 8.8692-17.324 9.3111-18.385v-7.9807l1.9281 0.11987 0.04419 8.2047s-3.6877 13.659-5.6044 20.648c-0.32031 1.1681-1.2816 2.2981 0.26516 3.6239-3.2704-0.46404-4.088-0.55243-6.2756-1.2374z"/>
     <path id="flask-right-reflection-8" fill-opacity=".056604" d="m37.07 40.334c1.5006-0.79879 0.83969-3.3146-0.39775-5.0823-1.2374-1.7678-8.8692-17.324-9.3111-18.385v-7.3384l-0.94371 0.16674-0.02857 7.5148s5.1565 13.815 7.0732 20.805c0.32031 1.1681 1.2816 2.2981-0.26516 3.6239 3.2704-0.46404 1.8496-0.22814 3.8731-1.3053z"/>
     <path id="flask-mouth-reflection-2-6" stroke-linejoin="round" d="m28.294 9.1024c-1.583 0.27104-2.0556 0.49632-4.2902 0.49632s-2.9549-0.31373-4.3143-0.47707" stroke="#999" stroke-linecap="round" stroke-width=".5" fill="none"/>
     <path id="flask-neck-reflection-0" opacity=".2" stroke-linejoin="round" d="m28.473 17.147c-1.0371 0.82843-3.6067 0.91984-4.5285 0.91984-1.0475 0-2.5486 0.06326-4.5285-0.83146" stroke="url(#radialGradient3570-6)" stroke-width="1.0537" fill="none"/>
     <path id="flask-base-reflection-1-0" opacity=".1" stroke-linejoin="round" d="m38.579 36.309c-3.3236 1.8968-11.683 2.6061-14.637 2.6061-3.3569 0-8.0421-0.35516-14.387-2.4037" stroke="#fff" stroke-linecap="round" stroke-width="2" fill="none"/>
     <path id="flash-mouth-reflection-1-9" opacity=".5" fill="url(#linearGradient3572-9)" d="m18.796 6.3955c-0.41823 1.1755-0.16625 2.2548 1.1755 2.5165 1.4182 0.27653 2.3071 0.42429 3.9619 0.45828 1.5529 0.0319 2.9335-0.2341 4.0479-0.4496 0.728-0.1407 1.101-0.4423 1.306-0.8735 0.315-0.6642 0.089-1.3322-0.066-1.6734-0.586 0.6739-2.911 1.0675-5.418 1.0398-2.523-0.0279-4.424-0.4255-5.007-1.0181z"/>
     <path id="flask-base-reflection-2-2" opacity=".1" stroke-linejoin="round" d="m38.579 38.342c-3.3236 1.8968-11.683 2.5177-14.637 2.5177-3.3569 0-8.0421-0.26677-14.387-2.3153" stroke="#2e3436" stroke-linecap="round" stroke-width="2" fill="none"/>
     <path id="flask-border-24" d="m19.228 5.6024c-0.95432 0.25-1.496 3.0385 0.47716 3.5v8l-9.9895 16.918c-1.1937 2.023-2.5237 5.184 1.4295 7.189 2.553 1.063 7.091 1.791 12.855 1.791 5.7644 0 10.302-0.72809 12.855-1.7914 3.9528-2.0047 2.6228-5.1659 1.4285-7.1886l-9.9895-16.918v-8c2.1279-0.54987 1.4315-3.25 0.47716-3.5" stroke="#999" stroke-width=".5" fill="none"/>
    </g>
    <path id="path3341-5" opacity=".4" style="color:#000000" d="m44.402 41.57c0 0.91569-9.2517 1.658-20.664 1.658-11.413 0-20.664-0.74231-20.664-1.658s9.2517-1.658 20.664-1.658c11.413 0 20.664 0.74231 20.664 1.658z" fill-rule="evenodd" transform="matrix(-.31146 .86527 -2.0249 -.72889 283.58 -41.081)" filter="url(#filter3395-2-4-4-1)"/>
    <g id="text3500" opacity=".7" transform="matrix(-.96689 -.25519 .25519 -.96689 113.19 -36.17)" fill="#333">
     <path id="path4491" fill="#333" d="m-86.491 22.866c0.03837 0.94643-0.66955 1.7499-1.5888 1.8266-0.91923 0.07667-1.7628-0.60736-1.8671-1.5522-0.10431-0.94479 0.60207-1.8084 1.5872-1.8868 0.98517-0.07831 1.8303 0.66591 1.8687 1.6123zm4.6109 3.6172c-0.07279 0.46045-0.4295 0.79158-0.80955 0.74814-0.37469-0.04283-0.66394-0.44234-0.62694-0.91398 0.03648-0.465 0.41314-0.82631 0.82414-0.77892s0.68514 0.48432 0.61235 0.94477zm1.0648-6.7357c-0.07279 0.46045-0.55818 0.77415-1.0855 0.71223-0.51993-0.06105-0.9191-0.47306-0.8821-0.94471 0.03648-0.465 0.52306-0.81381 1.0793-0.7482s0.96112 0.52023 0.88834 0.98068zm-3.0645 2.5098c0.0041-0.09335-0.06109-0.18325-0.15711-0.2071-0.34827-0.065-0.69856-0.12356-1.0504-0.17632-0.0622-0.18768-0.14644-0.36865-0.2393-0.5493 0.1962-0.26162 0.41152-0.50089 0.62542-0.75766 0.02956-0.03957 0.052-0.07922 0.05272-0.12602 0.0029-0.18721-0.86664-0.9184-1.0632-1.0777-0.0453-0.03315-0.09795-0.05275-0.15762-0.05201-0.0522 0.00065-0.10409 0.01483-0.14788 0.0491-0.28762 0.20383-0.56925 0.41144-0.8456 0.62228-0.17808-0.07346-0.36377-0.13879-0.55571-0.18233-0.07605-0.33954-0.15334-0.679-0.23182-1.0184-0.02076-0.0932-0.12958-0.16121-0.23335-0.15484-0.45958 0.0282-0.9146 0.06351-1.3647 0.10459-0.10164 0.0093-0.18207 0.08467-0.20184 0.1814-0.06198 0.33784-0.061 0.71046-0.06308 1.0495-0.18529 0.07934-0.35458 0.16485-0.52057 0.27107-0.29045-0.17188-0.58172-0.34173-0.87298-0.5097-0.04505-0.02164-0.09629-0.03568-0.15206-0.02872-0.20216 0.02521-0.8726 0.93496-0.98556 1.1334-0.02888 0.04462-0.03646 0.0931-0.03047 0.13974 0.006 0.04663 0.03234 0.09049 0.06462 0.12678 0.24971 0.22374 0.48496 0.44388 0.70832 0.68681-0.06777 0.17819-0.12148 0.3546-0.15381 0.53503-0.34255 0.09809-0.68328 0.19752-1.0223 0.29743-0.08532 0.02505-0.13904 0.13372-0.12764 0.22003l0.16223 1.2282c0.01228 0.09294 0.09028 0.17068 0.1853 0.17202 0.34453 0.0099 0.68913 0.02056 1.0333 0.03253 0.08338 0.17948 0.18564 0.35 0.30069 0.51921-0.16008 0.28347-0.32732 0.55427-0.48652 0.83056-0.02132 0.04316-0.03599 0.08552-0.03001 0.13216 0.02479 0.19321 0.88867 0.81637 1.0768 0.9577 0.04298 0.02901 0.09076 0.04395 0.14259 0.03812 0.04534-0.0051 0.09554-0.02427 0.12397-0.06134 0.23125-0.22694 0.46303-0.45355 0.69601-0.67929 0.16378 0.06406 0.33233 0.12125 0.50428 0.15832 0.08313 0.33731 0.16536 0.67475 0.24664 1.0123 0.02165 0.09273 0.1164 0.15797 0.20374 0.14962 0.38682-0.03699 0.76936-0.0705 1.1473-0.09918 0.08534-0.0065 0.15387-0.07892 0.17231-0.17471 0.05844-0.33481 0.06718-0.70627 0.07802-1.0509 0.16551-0.06487 0.31777-0.14134 0.46969-0.23696 0.24852 0.18863 0.49165 0.37945 0.72858 0.57259 0.03697 0.02557 0.07966 0.04426 0.12786 0.04277 0.17473-0.0054 0.84929-0.83012 0.97457-1.0098 0.03115-0.03321 0.04421-0.07988 0.04496-0.12668 0.000858-0.05348-0.017-0.09378-0.0412-0.1341-0.19458-0.25569-0.3832-0.50286-0.56425-0.76898 0.08235-0.16828 0.15324-0.33596 0.20553-0.51008 0.33645-0.05406 0.67354-0.10216 1.0114-0.14345 0.08501-0.0103 0.15439-0.10753 0.15819-0.19422zm3.49 4.0709c0.0246-0.09739-0.6683-0.36213-0.77831-0.39828-0.02197-0.12703-0.05634-0.25632-0.10622-0.37444 0.07618-0.12114 0.45293-0.72533 0.47686-0.84301 0.0027-0.01307 0.000593-0.03396-0.01499-0.05081-0.06366-0.06085-0.6535-0.59407-0.685-0.59908-0.01329 0.0024-0.02658 0.0048-0.03986 0.0072-0.24905 0.19005-0.47104 0.42154-0.67454 0.65763-0.06026-0.01429-0.12069-0.02828-0.182-0.03538-0.0613-0.0071-0.12345-0.0073-0.1856-0.0072-0.05078-0.10581-0.46202-0.80564-0.54536-0.81205-0.03205-0.0025-0.74096 0.3824-0.8188 0.41925-0.01961 0.01254-0.02682 0.0323-0.0274 0.04563-0.005 0.11335 0.22259 0.79807 0.26951 0.93407-0.07881 0.10276-0.14532 0.21993-0.19914 0.33784-0.12042 0.0082-0.90107 0.08616-0.90233 0.18648l-0.01173 0.93628c-0.0013 0.10032 0.73562 0.20568 0.84772 0.22339 0.03886 0.12837 0.08878 0.24391 0.14889 0.35352-0.05728 0.13086-0.31806 0.79576-0.32303 0.90912-0.000584 0.01333 0.0039 0.03348 0.01923 0.04729 0.0617 0.04856 0.58785 0.50128 0.61302 0.50296 0.06545 0.0044 0.50673-0.62658 0.56872-0.72062 0.05062 0.01189 0.10099 0.02402 0.15193 0.02981 0.05093 0.0058 0.10248 0.0052 0.15392 0.005 0.03813 0.10542 0.30957 0.81742 0.37053 0.82765 0.02345 0.0039 0.59903-0.31845 0.66444-0.35152 0.01668-0.0099 0.02403-0.0219 0.02802-0.04151 0.02393-0.11768-0.05235-0.81617-0.07379-0.95632 0.08028-0.09278 0.15269-0.19351 0.2183-0.30916 0.10576 0.0087 0.78283 0.08261 0.80743-0.01478zm1.6792-6.6484c0.0246-0.09739-0.98861-0.40881-1.1461-0.45166-0.04096-0.12971-0.09895-0.26232-0.17685-0.38434 0.0972-0.11822 0.57369-0.70834 0.59763-0.82602 0.0027-0.01307-0.0018-0.0343-0.02458-0.05217-0.0924-0.06493-0.92954-0.63229-0.97223-0.63881-0.01777 0.0018-0.03552 0.0036-0.05326 0.0054-0.32486 0.17989-0.61165 0.40294-0.87431 0.63147-0.08138-0.01699-0.16276-0.03363-0.24482-0.04333-0.08205-0.0097-0.16476-0.01243-0.24727-0.01484-0.07115-0.10832-0.63065-0.82584-0.73884-0.83511-0.04161-0.0036-0.94722 0.35975-1.0461 0.39443-0.02487 0.012-0.03383 0.03158-0.03441 0.04491-0.005 0.11336 0.29713 0.80586 0.36037 0.94362-0.10058 0.10042-0.18497 0.2157-0.25299 0.33212-0.15594 0.0045-1.1516 0.06198-1.1528 0.16229l-0.01174 0.93628c-0.0013 0.10032 0.9506 0.22615 1.0982 0.24757 0.05307 0.12986 0.12086 0.24728 0.20274 0.35924-0.0736 0.1291-0.40892 0.78621-0.41389 0.89956-0.000585 0.01333 0.0056 0.03366 0.02624 0.04801 0.08275 0.05073 0.8056 0.525 0.84033 0.52778 0.0903 0.0072 0.67984-0.60603 0.7622-0.69756 0.07099 0.0144 0.14192 0.02908 0.2136 0.03748s0.14416 0.0105 0.21674 0.01294c0.05926 0.10812 0.49366 0.84147 0.5837 0.85561 0.03463 0.0054 0.85751-0.2828 0.95167-0.31179 0.02387-0.0089 0.03363-0.02054 0.03762-0.04014 0.02393-0.11768-0.1521-0.83024-0.19455-0.97331 0.1083-0.08888 0.20434-0.18629 0.28894-0.29926 0.15324 0.01536 1.1506 0.13598 1.1752 0.03859z"/>
    </g>
   </g>
   <g id="g3689" transform="matrix(.99977 -.021225 .021225 .99977 12.714 72.936)">
    <g id="group-shadow-8" transform="translate(154.17 -73.081)">
     <path id="shadow-7" opacity=".4" style="color:#000000" d="m44.402 41.57a20.664 1.658 0 1 1 -41.329 0 20.664 1.658 0 1 1 41.329 0z" fill-rule="evenodd" transform="matrix(.91962 0 0 2.1521 2.2376 -47.98)" filter="url(#filter3395-1-7)"/>
    </g>
    <g id="group-flask-back-8" transform="translate(154.17 -73.081)">
     <path id="flask-back-8" opacity=".5" fill="url(#linearGradient3558-0)" d="m18.715 6.0049c-0.504 0.4811-0.917 2.9012 0.99 3.0975v8l-9.9895 16.918c-1.1937 2.023-2.5237 5.184 1.4295 7.189 2.553 1.063 7.091 1.791 12.855 1.791 5.7644 0 10.302-0.72809 12.855-1.7914 3.9528-2.0047 2.6228-5.1659 1.4285-7.1886l-9.99-16.918v-8c1.9069-0.19632 1.4487-2.9747 0.89007-3.1043-1.1899 1.6577-9.583 1.3994-10.469 0.00677z"/>
     <path id="flask-bottom-0" opacity=".5" stroke-linejoin="round" d="m38.315 38c0 2.209-4.409 4-14.315 4-10 0-14.315-1.791-14.315-4 0.0002-2.209 6.409-4 14.315-4 7.9059 0 14.315 1.7909 14.315 4z" stroke-opacity=".5" stroke="#fff" stroke-linecap="round" fill="url(#radialGradient3560-2)"/>
    </g>
    <g id="group-liquid-5" transform="matrix(1.0374 0 0 1 153.31 -72.85)">
     <path id="liquid-bottom-4" opacity=".9" fill="url(#linearGradient3826-3)" d="m14.136 27.359-3.417 5.922c-1.649 2.868-2.0542 3.807-1.594 5.219 0.61094 1.874 3.125 4 14.375 4 8.6818 0 14.229-0.89409 15.406-3.9375 0.41168-1.0645-0.0053-2.6848-0.8125-4.0312l-4.238-7.0781c-0.09388 0.2724-0.19761 0.46228-0.36972 0.64062-0.43559 0.45139-1.0561 0.77264-1.8923 1.0312-1.6723 0.51722-4.1476 0.8125-7.5938 0.8125-3.4784 0-5.9601-0.295-7.625-0.8125-0.83244-0.25875-1.532-0.64948-1.8309-1.0117-0.16778-0.20334-0.30417-0.27218-0.4085-0.75391z"/>
     <path id="liquid-top-border-1" opacity=".5" style="block-progression:tb;color:#000000;text-transform:none;text-indent:0" d="m24 24.504c-2.6619 0-5.0605 0.27456-6.8292 0.72474-0.88433 0.22509-1.6276 0.49807-2.1548 0.81534-0.52721 0.31727-0.89508 0.70411-0.89508 1.1777 0 0.42857 0.27342 0.8189 0.69618 1.1475 0.42275 0.32862 1.0203 0.61816 1.8233 0.84554 1.6061 0.45476 3.9964 0.74037 7.3521 0.74037 3.3245 0 5.7207-0.28586 7.334-0.74037 0.80665-0.22725 1.429-0.51753 1.8565-0.84554 0.42748-0.328 0.69618-0.71693 0.69618-1.1475 0-0.4736-0.36788-0.86044-0.89508-1.1777-0.52721-0.31727-1.2705-0.59024-2.1548-0.81534-1.769-0.451-4.167-0.725-6.829-0.725z" fill-opacity=".66667" fill="#3b72bd"/>
     <path id="liquid-top-2" opacity=".8" style="block-progression:tb;color:#000000;text-transform:none;text-indent:0" fill="url(#radialGradient3828-0)" d="m24 24.998c2.4407 0 4.6534 0.27976 6.2303 0.72038 0.78842 0.22031 1.4197 0.48814 1.8301 0.75931 0.41046 0.27117 0.56462 0.51754 0.56462 0.72038 0 0.24692-0.11947 0.47968-0.42833 0.73984-0.30886 0.26017-0.81345 0.52175-1.5186 0.73985-1.4104 0.43619-3.6099 0.72038-6.6781 0.72038-3.0976 0-5.3145-0.28444-6.717-0.72038-0.70124-0.21797-1.195-0.4803-1.4992-0.73985-0.30414-0.25954-0.40886-0.49086-0.40886-0.73984 0-0.20284 0.15416-0.4492 0.56462-0.72038 0.41046-0.27117 1.0417-0.539 1.8301-0.75931 1.577-0.44 3.789-0.72 6.23-0.72z"/>
    </g>
    <g id="group-flask-front-5" transform="translate(154.17 -73.081)">
     <path id="flask-bottom-reflection-1-8" opacity=".5" style="block-progression:tb;color:#000000;text-transform:none;text-indent:0" fill="url(#linearGradient3566-7)" d="m24 33.531c-3.9883 0-7.6 0.447-10.25 1.1875-1.325 0.37025-2.3976 0.82189-3.1875 1.3438-0.7894 0.522-1.3432 1.159-1.3432 1.938 0 0.70494 0.36658 1.3657 1 1.9062 0.63342 0.54053 1.5468 1.001 2.75 1.375 2.4064 0.74801 6.0034 1.1875 11.031 1.1875 4.9812 0 8.5828-0.4399 11-1.1875 1.2086-0.3738 2.1408-0.83548 2.7812-1.375 0.6405-0.53952 1-1.198 1-1.9062 0-0.77901-0.55383-1.4156-1.3438-1.9375-0.789-0.521-1.862-0.973-3.187-1.343-2.65-0.741-6.262-1.188-10.25-1.188zm0 0.9375c3.9175 0 7.4691 0.44903 10 1.1562 1.2655 0.35361 2.2787 0.7835 2.9375 1.2188 0.65882 0.43525 0.90625 0.83069 0.90625 1.1562 0 0.39632-0.19176 0.76991-0.6875 1.1875s-1.3056 0.83744-2.4375 1.1875c-2.263 0.701-5.793 1.157-10.718 1.157-4.972 0-8.53-0.456-10.781-1.156-1.126-0.35-1.918-0.771-2.407-1.187-0.488-0.417-0.656-0.788-0.656-1.188 0-0.32556 0.24743-0.721 0.90625-1.1562 0.65882-0.43525 1.672-0.86514 2.9375-1.2188 2.5309-0.70722 6.0825-1.1562 10-1.1562z"/>
     <path id="flask-mouth-8-6" opacity=".5" fill="url(#linearGradient3568-4)" d="m29.114 6.0002a5.1146 1.1605 0 0 1 -10.229 0 5.1146 1.1605 0 1 1 10.229 0z"/>
     <path id="flask-mouth-88" stroke-linejoin="round" d="m32.426 8.5a8.213 1.5 0 1 1 -16.426 0 8.213 1.5 0 1 1 16.426 0z" transform="matrix(.62274 0 0 .77366 8.9215 -.5761)" stroke="#999" stroke-linecap="round" stroke-width=".72034" fill="none"/>
     <path id="flask-left-reflection-8" fill-opacity=".037736" d="m12.22 41.089c-1.5026-0.7955-0.90598-3.2262 0.33146-4.9939 1.2374-1.7678 8.8692-17.324 9.3111-18.385v-7.9807l1.9281 0.11987 0.04419 8.2047s-3.6877 13.659-5.6044 20.648c-0.32031 1.1681-1.2816 2.2981 0.26516 3.6239-3.2704-0.46404-4.088-0.55243-6.2756-1.2374z"/>
     <path id="flask-right-reflection-5" fill-opacity=".056604" d="m37.07 40.334c1.5006-0.79879 0.83969-3.3146-0.39775-5.0823-1.2374-1.7678-8.8692-17.324-9.3111-18.385v-7.3384l-0.94371 0.16674-0.02857 7.5148s5.1565 13.815 7.0732 20.805c0.32031 1.1681 1.2816 2.2981-0.26516 3.6239 3.2704-0.46404 1.8496-0.22814 3.8731-1.3053z"/>
     <path id="flask-mouth-reflection-2-0" stroke-linejoin="round" d="m28.294 9.1024c-1.583 0.27104-2.0556 0.49632-4.2902 0.49632s-2.9549-0.31373-4.3143-0.47707" stroke="#999" stroke-linecap="round" stroke-width=".5" fill="none"/>
     <path id="flask-neck-reflection-3" opacity=".2" stroke-linejoin="round" d="m28.473 17.147c-1.0371 0.82843-3.6067 0.91984-4.5285 0.91984-1.0475 0-2.5486 0.06326-4.5285-0.83146" stroke="url(#radialGradient3570-6)" stroke-width="1.0537" fill="none"/>
     <path id="flask-base-reflection-1-9" opacity=".1" stroke-linejoin="round" d="m38.579 36.309c-3.3236 1.8968-11.683 2.6061-14.637 2.6061-3.3569 0-8.0421-0.35516-14.387-2.4037" stroke="#fff" stroke-linecap="round" stroke-width="2" fill="none"/>
     <path id="flash-mouth-reflection-1-3" opacity=".5" fill="url(#linearGradient3572-9)" d="m18.796 6.3955c-0.41823 1.1755-0.16625 2.2548 1.1755 2.5165 1.4182 0.27653 2.3071 0.42429 3.9619 0.45828 1.5529 0.0319 2.9335-0.2341 4.0479-0.4496 0.728-0.1407 1.101-0.4423 1.306-0.8735 0.315-0.6642 0.089-1.3322-0.066-1.6734-0.586 0.6739-2.911 1.0675-5.418 1.0398-2.523-0.0279-4.424-0.4255-5.007-1.0181z"/>
     <path id="flask-base-reflection-2-9" opacity=".1" stroke-linejoin="round" d="m38.579 38.342c-3.3236 1.8968-11.683 2.5177-14.637 2.5177-3.3569 0-8.0421-0.26677-14.387-2.3153" stroke="#2e3436" stroke-linecap="round" stroke-width="2" fill="none"/>
     <path id="flask-border-2" d="m19.228 5.6024c-0.95432 0.25-1.496 3.0385 0.47716 3.5v8l-9.9895 16.918c-1.1937 2.023-2.5237 5.184 1.4295 7.189 2.553 1.063 7.091 1.791 12.855 1.791 5.7644 0 10.302-0.72809 12.855-1.7914 3.9528-2.0047 2.6228-5.1659 1.4285-7.1886l-9.9895-16.918v-8c2.1279-0.54987 1.4315-3.25 0.47716-3.5" stroke="#999" stroke-width=".5" fill="none"/>
    </g>
    <g id="text3530" transform="matrix(.99977 .021225 -.021225 .99977 -59.238 -60.757)" fill="#333">
     <path id="path4443" opacity=".7" d="m235.56 22.046c0.0718-0.68598-0.47159-1.3024-1.1966-1.4078-0.72504-0.10534-1.3923 0.33698-1.5079 1.014-0.11566 0.67705 0.38742 1.3448 1.1563 1.4591 0.76887 0.11427 1.4764-0.37938 1.5483-1.0654zm3.8571 0.906c-0.19152-1.3664-0.92449-2.6241-1.8959-3.6438-0.96449-1.0259-2.1394-1.7633-3.463-2.0827-0.0126-0.002-0.0189-0.003-0.0315-0.0049-0.10076-0.01587-0.20782 0.0064-0.28907 0.06539-0.10124 0.06235-0.16418 0.1635-0.18382 0.27846l-0.1473 0.86228c-0.036 0.21078 0.0967 0.4115 0.30868 0.46618 0.9791 0.25676 1.8235 0.80576 2.4714 1.5297 0.64788 0.72399 1.1071 1.6258 1.1773 2.6174 0.0141 0.21454 0.21874 0.38335 0.47925 0.38658 0.35525 0.0044 0.71389 0.0016 1.0757-0.0092 0.14472-0.0043 0.28092-0.05497 0.37424-0.14958 0.0936-0.08816 0.13683-0.20029 0.12412-0.31593zm4.1742-0.57897c-0.36437-1.0785-0.96651-2.0602-1.6436-2.9575-0.67712-0.89736-1.4266-1.7139-2.2065-2.4576-1.5545-1.4942-3.1341-2.6065-5.1646-3.0154-0.005-0.000777-0.0118-0.0017-0.0175-0.0025-0.0937-0.01344-0.19411 0.01136-0.27795 0.07772-0.0897 0.0655-0.14894 0.16149-0.16858 0.27646l-0.15603 0.91338c-0.036 0.21078 0.0925 0.41459 0.2975 0.45876 1.7517 0.37688 3.164 1.3245 4.3898 2.5601 0.61294 0.61777 1.1791 1.3123 1.6579 2.0794 0.47883 0.76717 0.86997 1.6089 1.0627 2.5267 0.0457 0.21475 0.30151 0.34988 0.58644 0.30507 0.39948-0.06281 0.80172-0.13667 1.2064-0.22242 0.15284-0.03238 0.27861-0.10697 0.35937-0.21195 0.0892-0.10692 0.11112-0.22564 0.0747-0.33016" fill="#333"/>
    </g>
   </g>
   <path id="path3341-1" opacity=".4" style="color:#000000" d="m44.402 41.57c0 0.91569-9.2517 1.658-20.664 1.658-11.413 0-20.664-0.74231-20.664-1.658s9.2517-1.658 20.664-1.658c11.413 0 20.664 0.74231 20.664 1.658z" fill-rule="evenodd" transform="matrix(.91938 -.021205 .049624 2.1515 166.45 -51.374)" filter="url(#filter3395-7)"/>
   <g id="g3535" transform="translate(4.1807 35.767)">
    <g id="group-shadow" transform="translate(143.1 -25.968)">
     <path id="shadow" opacity=".4" style="color:#000000" d="m44.402 41.57a20.664 1.658 0 1 1 -41.329 0 20.664 1.658 0 1 1 41.329 0z" fill-rule="evenodd" transform="matrix(.91962 0 0 2.1521 2.2376 -47.98)" filter="url(#filter3395-7-5-9)"/>
    </g>
    <g id="group-flask-back" transform="translate(143.1 -25.968)">
     <path id="flask-back" opacity=".5" fill="url(#linearGradient3558-0)" d="m18.715 6.0049c-0.504 0.4811-0.917 2.9012 0.99 3.0975v8l-9.9895 16.918c-1.1937 2.023-2.5237 5.184 1.4295 7.189 2.553 1.063 7.091 1.791 12.855 1.791 5.7644 0 10.302-0.72809 12.855-1.7914 3.9528-2.0047 2.6228-5.1659 1.4285-7.1886l-9.99-16.918v-8c1.9069-0.19632 1.4487-2.9747 0.89007-3.1043-1.1899 1.6577-9.583 1.3994-10.469 0.00677z"/>
     <path id="flask-bottom" opacity=".5" stroke-linejoin="round" d="m38.315 38c0 2.209-4.409 4-14.315 4-10 0-14.315-1.791-14.315-4 0.0002-2.209 6.409-4 14.315-4 7.9059 0 14.315 1.7909 14.315 4z" stroke-opacity=".5" stroke="#fff" stroke-linecap="round" fill="url(#radialGradient3560-2)"/>
    </g>
    <g id="group-liquid" transform="matrix(1.0374 0 0 1 142.24 -25.736)">
     <path id="liquid-bottom" opacity=".9" fill="url(#linearGradient3562-2)" d="m14.136 27.359-3.417 5.922c-1.649 2.868-2.0542 3.807-1.594 5.219 0.61094 1.874 3.125 4 14.375 4 8.6818 0 14.229-0.89409 15.406-3.9375 0.41168-1.0645-0.0053-2.6848-0.8125-4.0312l-4.238-7.0781c-0.09388 0.2724-0.19761 0.46228-0.36972 0.64062-0.43559 0.45139-1.0561 0.77264-1.8923 1.0312-1.6723 0.51722-4.1476 0.8125-7.5938 0.8125-3.4784 0-5.9601-0.295-7.625-0.8125-0.83244-0.25875-1.532-0.64948-1.8309-1.0117-0.16778-0.20334-0.30417-0.27218-0.4085-0.75391z"/>
     <path id="liquid-top-border" opacity=".5" style="block-progression:tb;color:#000000;text-transform:none;text-indent:0" d="m24 24.504c-2.6619 0-5.0605 0.27456-6.8292 0.72474-0.88433 0.22509-1.6276 0.49807-2.1548 0.81534-0.52721 0.31727-0.89508 0.70411-0.89508 1.1777 0 0.42857 0.27342 0.8189 0.69618 1.1475 0.42275 0.32862 1.0203 0.61816 1.8233 0.84554 1.6061 0.45476 3.9964 0.74037 7.3521 0.74037 3.3245 0 5.7207-0.28586 7.334-0.74037 0.80665-0.22725 1.429-0.51753 1.8565-0.84554 0.42748-0.328 0.69618-0.71693 0.69618-1.1475 0-0.4736-0.36788-0.86044-0.89508-1.1777-0.52721-0.31727-1.2705-0.59024-2.1548-0.81534-1.769-0.451-4.167-0.725-6.829-0.725z" fill-opacity=".66667" fill="#73d216"/>
     <path id="liquid-top" opacity=".8" style="block-progression:tb;color:#000000;text-transform:none;text-indent:0" fill="url(#radialGradient3564-2)" d="m24 24.998c2.4407 0 4.6534 0.27976 6.2303 0.72038 0.78842 0.22031 1.4197 0.48814 1.8301 0.75931 0.41046 0.27117 0.56462 0.51754 0.56462 0.72038 0 0.24692-0.11947 0.47968-0.42833 0.73984-0.30886 0.26017-0.81345 0.52175-1.5186 0.73985-1.4104 0.43619-3.6099 0.72038-6.6781 0.72038-3.0976 0-5.3145-0.28444-6.717-0.72038-0.70124-0.21797-1.195-0.4803-1.4992-0.73985-0.30414-0.25954-0.40886-0.49086-0.40886-0.73984 0-0.20284 0.15416-0.4492 0.56462-0.72038 0.41046-0.27117 1.0417-0.539 1.8301-0.75931 1.577-0.44 3.789-0.72 6.23-0.72z"/>
    </g>
    <g id="group-flask-front" transform="translate(143.1 -25.968)">
     <path id="flask-bottom-reflection-1" opacity=".5" style="block-progression:tb;color:#000000;text-transform:none;text-indent:0" fill="url(#linearGradient3566-7)" d="m24 33.531c-3.9883 0-7.6 0.447-10.25 1.1875-1.325 0.37025-2.3976 0.82189-3.1875 1.3438-0.7894 0.522-1.3432 1.159-1.3432 1.938 0 0.70494 0.36658 1.3657 1 1.9062 0.63342 0.54053 1.5468 1.001 2.75 1.375 2.4064 0.74801 6.0034 1.1875 11.031 1.1875 4.9812 0 8.5828-0.4399 11-1.1875 1.2086-0.3738 2.1408-0.83548 2.7812-1.375 0.6405-0.53952 1-1.198 1-1.9062 0-0.77901-0.55383-1.4156-1.3438-1.9375-0.789-0.521-1.862-0.973-3.187-1.343-2.65-0.741-6.262-1.188-10.25-1.188zm0 0.9375c3.9175 0 7.4691 0.44903 10 1.1562 1.2655 0.35361 2.2787 0.7835 2.9375 1.2188 0.65882 0.43525 0.90625 0.83069 0.90625 1.1562 0 0.39632-0.19176 0.76991-0.6875 1.1875s-1.3056 0.83744-2.4375 1.1875c-2.263 0.701-5.793 1.157-10.718 1.157-4.972 0-8.53-0.456-10.781-1.156-1.126-0.35-1.918-0.771-2.407-1.187-0.488-0.417-0.656-0.788-0.656-1.188 0-0.32556 0.24743-0.721 0.90625-1.1562 0.65882-0.43525 1.672-0.86514 2.9375-1.2188 2.5309-0.70722 6.0825-1.1562 10-1.1562z"/>
     <path id="flask-mouth-8" opacity=".5" fill="url(#linearGradient3568-4)" d="m29.114 6.0002a5.1146 1.1605 0 0 1 -10.229 0 5.1146 1.1605 0 1 1 10.229 0z"/>
     <path id="flask-mouth" stroke-linejoin="round" d="m32.426 8.5a8.213 1.5 0 1 1 -16.426 0 8.213 1.5 0 1 1 16.426 0z" transform="matrix(.62274 0 0 .77366 8.9215 -.5761)" stroke="#999" stroke-linecap="round" stroke-width=".72034" fill="none"/>
     <path id="flask-left-reflection" fill-opacity=".037736" d="m12.22 41.089c-1.5026-0.7955-0.90598-3.2262 0.33146-4.9939 1.2374-1.7678 8.8692-17.324 9.3111-18.385v-7.9807l1.9281 0.11987 0.04419 8.2047s-3.6877 13.659-5.6044 20.648c-0.32031 1.1681-1.2816 2.2981 0.26516 3.6239-3.2704-0.46404-4.088-0.55243-6.2756-1.2374z"/>
     <path id="flask-right-reflection" fill-opacity=".056604" d="m37.07 40.334c1.5006-0.79879 0.83969-3.3146-0.39775-5.0823-1.2374-1.7678-8.8692-17.324-9.3111-18.385v-7.3384l-0.94371 0.16674-0.02857 7.5148s5.1565 13.815 7.0732 20.805c0.32031 1.1681 1.2816 2.2981-0.26516 3.6239 3.2704-0.46404 1.8496-0.22814 3.8731-1.3053z"/>
     <path id="flask-mouth-reflection-2" stroke-linejoin="round" d="m28.294 9.1024c-1.583 0.27104-2.0556 0.49632-4.2902 0.49632s-2.9549-0.31373-4.3143-0.47707" stroke="#999" stroke-linecap="round" stroke-width=".5" fill="none"/>
     <path id="flask-neck-reflection" opacity=".2" stroke-linejoin="round" d="m28.473 17.147c-1.0371 0.82843-3.6067 0.91984-4.5285 0.91984-1.0475 0-2.5486 0.06326-4.5285-0.83146" stroke="url(#radialGradient3570-6)" stroke-width="1.0537" fill="none"/>
     <path id="flask-base-reflection-1" opacity=".1" stroke-linejoin="round" d="m38.579 36.309c-3.3236 1.8968-11.683 2.6061-14.637 2.6061-3.3569 0-8.0421-0.35516-14.387-2.4037" stroke="#fff" stroke-linecap="round" stroke-width="2" fill="none"/>
     <path id="flash-mouth-reflection-1" opacity=".5" fill="url(#linearGradient3572-9)" d="m18.796 6.3955c-0.41823 1.1755-0.16625 2.2548 1.1755 2.5165 1.4182 0.27653 2.3071 0.42429 3.9619 0.45828 1.5529 0.0319 2.9335-0.2341 4.0479-0.4496 0.728-0.1407 1.101-0.4423 1.306-0.8735 0.315-0.6642 0.089-1.3322-0.066-1.6734-0.586 0.6739-2.911 1.0675-5.418 1.0398-2.523-0.0279-4.424-0.4255-5.007-1.0181z"/>
     <path id="flask-base-reflection-2" opacity=".1" stroke-linejoin="round" d="m38.579 38.342c-3.3236 1.8968-11.683 2.5177-14.637 2.5177-3.3569 0-8.0421-0.26677-14.387-2.3153" stroke="#2e3436" stroke-linecap="round" stroke-width="2" fill="none"/>
     <path id="flask-border" d="m19.228 5.6024c-0.95432 0.25-1.496 3.0385 0.47716 3.5v8l-9.9895 16.918c-1.1937 2.023-2.5237 5.184 1.4295 7.189 2.553 1.063 7.091 1.791 12.855 1.791 5.7644 0 10.302-0.72809 12.855-1.7914 3.9528-2.0047 2.6228-5.1659 1.4285-7.1886l-9.9895-16.918v-8c2.1279-0.54987 1.4315-3.25 0.47716-3.5" stroke="#999" stroke-width=".5" fill="none"/>
    </g>
    <path id="path4482" opacity=".7" d="m164.3 13.038c0.11347-0.07305 0.12829-0.2056 0.0377-0.30434-0.91302-0.99503-1.6855-2.0498-2.2953-3.1402 1.1031-0.58672 2.0819-1.2842 2.9392-2.06 0.0851-0.077 0.0999-0.20953 0.0377-0.30434-0.0798-0.12155-0.1571-0.24375-0.23197-0.36654-0.0584-0.0958-0.1654-0.11197-0.24973-0.0378-1.0077 0.88574-2.1843 1.6567-3.5345 2.2587-0.113 0.05038-0.16189 0.17516-0.10853 0.2882 0.63764 1.3506 1.5144 2.6591 2.5935 3.8853 0.0903 0.10262 0.25242 0.12777 0.36919 0.05725 0.1497-0.09042 0.29729-0.18249 0.44277-0.27615zm3.97-7.0516c0.0153-0.11616-0.0495-0.23039-0.14123-0.25507-0.11126-0.0272-0.22161-0.0557-0.33101-0.0854-0.085-0.0271-0.1735 0.0458-0.19337 0.16109-0.49135 2.917-1.3687 5.8021-2.6606 8.5681-0.0518 0.10921 0.0223 0.23686 0.16448 0.28196 0.17308 0.05208 0.34705 0.10217 0.52186 0.15025 0.13513 0.04131 0.29244-0.01822 0.33928-0.12983 1.1669-2.8259 1.9242-5.7519 2.3006-8.6911zm4.8533 3.3851c0.0571-0.11113 0.0131-0.23759-0.0983-0.29195-1.3314-0.64951-2.5389-1.4339-3.5857-2.3134-0.0876-0.0736-0.1989-0.0556-0.25916 0.0419-0.0772 0.12499-0.1565 0.24944-0.23773 0.37329-0.0634 0.0966-0.0471 0.22971 0.0407 0.30576 0.8846 0.76639 1.8868 1.4665 2.9847 2.0763-0.63283 1.0848-1.3948 2.145-2.2889 3.1483-0.0887 0.09956-0.0724 0.23267 0.0407 0.30576 0.14506 0.09371 0.29187 0.18603 0.4404 0.2769 0.11585 0.07088 0.27519 0.04578 0.36328-0.05725 1.0526-1.2311 1.9176-2.5377 2.6-3.8656z" fill="#333"/>
   </g>
  </g>
  <g id="g4494" transform="translate(1.1255 -1.6479)">
   <g id="text3345" fill="#333" transform="translate(-.18197)">
    <path id="path3354" d="m32.773 12.837c0.61494 0.000025 1.1889 0.20501 1.7219 0.61496 0.57395 0.41 0.86093 0.88146 0.86094 1.4144-0.000015 0.49199-0.2665 0.94296-0.79944 1.3529-0.49198 0.369-1.0454 0.55348-1.6604 0.55346-0.61497 0.000022-1.1889-0.20496-1.7219-0.61496-0.49198-0.45095-0.73796-0.96341-0.73795-1.5374-0.00001-1.1889 0.77894-1.7834 2.3368-1.7834m-1.1684 8.4864c-0.000012 0.246-1.6194 3.1568-4.8582 8.7324-3.1568 6.0266-5.5961 10.229-7.318 12.607-3.7307 5.3296-7.236 7.9944-10.516 7.9944-1.2299-0.000012-2.3573-0.40998-3.3823-1.2299-1.0659-0.77896-1.5989-1.5784-1.5989-2.3983 0.0000163-0.77896 0.1845-1.1684 0.55346-1.1684 0.041013-0.000008 0.47148 0.51246 1.2914 1.5374 0.77896 1.0659 1.7014 1.5989 2.7673 1.5989 3.2798-0.00001 7.0105-3.7103 11.192-11.131 2.5828-4.6327 4.3457-8.3839 5.2886-11.254-0.49197 0.57397-1.3529 1.4144-2.5828 2.5213-1.1889 1.1069-1.9269 1.6604-2.2138 1.6604-0.24598 0.000007-0.36898-0.06149-0.36898-0.18449 0-0.36897 0.32798-0.84043 0.98393-1.4144 0.65595-0.57395 1.5374-1.6604 2.6443-3.2593s1.7629-2.4803 1.9679-2.6443l2.0294-2.1524c0.81994-0.77893 1.7014-1.1684 2.6443-1.1684 0.98392 0.000019 1.4759 0.45099 1.4759 1.3529"/>
    <path id="path3356" d="m35.735 38.85c-0.45097-0.000001-0.86094-0.0615-1.2299-0.18449-2.6238-0.73795-3.9357-2.2138-3.9357-4.4277 0.000002-2.8698 1.8039-6.1906 5.4116-9.9623s6.8465-5.6576 9.7163-5.6576c0.94292 0.00002 1.7014 0.2665 2.2753 0.79945 0.61494 0.49198 0.92242 1.1069 0.92244 1.8449-0.000016 2.2959-1.7424 4.4892-5.2271 6.58-3.4438 2.0909-6.2521 3.1363-8.4249 3.1363-0.32798 0.000007-0.61496-0.04099-0.86094-0.12299-0.61496 1.1069-0.92244 2.2753-0.92244 3.5053-0.000001 2.1319 1.0044 3.1978 3.0133 3.1978 2.0499 0 4.6942-1.3734 7.933-4.1202 2.5008-2.0089 4.6327-4.1407 6.3956-6.3956 0.36896-0.49195 0.67644-0.73794 0.92244-0.73795 0.28696 0.000012 0.43045 0.123 0.43047 0.36898-0.000019 0.24599-0.16401 0.59447-0.49197 1.0454-2.2139 2.9108-4.8787 5.4936-7.9944 7.7485-3.1158 2.2548-5.7601 3.3823-7.933 3.3823m11.623-17.711c-0.000015-0.49195-0.53298-0.73793-1.5989-0.73795-1.0249 0.000018-2.5008 0.79946-4.4277 2.3983-2.5828 2.1319-4.5917 4.3662-6.0266 6.703 0.24598 0.082 0.51246 0.123 0.79944 0.12299 1.5579 0.000008 3.6282-0.81993 6.2111-2.4598 2.6238-1.6809 4.2637-3.5052 4.9197-5.4731 0.08198-0.20497 0.12298-0.38946 0.12299-0.55346"/>
    <path id="path3358" d="m61.06 38.789c-3.2388-0.000001-5.9856-2.5623-8.2404-7.687-0.57396 0.86095-1.8654 3.2798-3.8742 7.2565-1.4759-0.57396-2.2138-1.3529-2.2138-2.3368 0.000002-1.7629 2.6443-6.6005 7.933-14.513 5.2886-7.9124 8.9169-12.566 10.885-13.96 0.16397-0.12296 0.49195-0.18446 0.98393-0.18449 1.2709 0.0000306 1.9063 0.32801 1.9064 0.98393-0.00002 0.32801-1.4349 2.1729-4.3047 5.5346-2.8288 3.3618-4.4072 5.3911-4.7352 6.0881 3.7307-1.9268 6.703-2.8903 8.9169-2.8903 1.2709 0.000021 2.3573 0.51248 3.2593 1.5374 0.86092 0.86096 1.2914 1.7424 1.2914 2.6443-0.000024 0.12301-0.000024 0.246 0 0.36897-0.328 2.3369-1.9679 4.2637-4.9197 5.7806-2.3779 1.2709-4.5917 1.9064-6.6415 1.9064-2.0499 0.000009-3.4848-0.26647-4.3047-0.79944-0.24599-0.04099-0.45098 0.02051-0.61496 0.18449-0.123 0.164-0.1435 0.36898-0.0615 0.61496 1.1479 5.0837 3.0543 7.6255 5.7191 7.6255 1.3939 0.000001 3.1773-0.77894 5.3501-2.3368 2.2138-1.5579 4.5097-3.7512 6.8875-6.58 0.28695-0.28697 0.53294-0.43046 0.73795-0.43047 0.24596 0.000011 0.36895 0.123 0.36898 0.36898-0.000027 0.205-0.14352 0.51247-0.43047 0.92244-2.2139 2.7058-4.3047 4.8377-6.2726 6.3956-2.9928 2.3368-5.5346 3.5053-7.6255 3.5053m8.8554-18.818c-0.000021-0.32796-0.18451-0.65594-0.55346-0.98393-0.369-0.32796-0.75847-0.49195-1.1684-0.49197-2.2139 0.000019-4.8787 0.92246-7.9944 2.7673-3.0748 1.8449-4.9607 3.9357-5.6576 6.2726 0.36897 0.00001 1.3529 0.06151 2.9518 0.18449 1.8449 0.00001 4.2637-0.75844 7.2565-2.2753 3.4437-1.7219 5.1656-3.5462 5.1656-5.4731"/>
    <path id="path3360" d="m69.271 45.184c1.9679 2.4598 3.6692 3.6897 5.1041 3.6897 2.3368-0.000011 4.8582-1.8654 7.564-5.5961 1.9679-2.7468 3.8947-6.2111 5.7806-10.393l2.3368-5.6576-9.0399 7.072c-2.7878 2.1729-5.0222 3.2593-6.703 3.2593-0.90194 0-1.6194-0.30748-2.1524-0.92244-0.53296-0.61496-0.79944-1.3119-0.79944-2.0909 0.000001-1.7629 1.5169-4.6532 4.5507-8.6709 3.0338-4.0587 5.2476-6.0881 6.6415-6.0881 1.3939 0.000018 2.0908 0.47149 2.0909 1.4144-0.000012 0.36899-1.8244 2.5008-5.4731 6.3956-3.6078 3.8537-5.4116 6.4571-5.4116 7.81-0.000001 0.53296 0.34848 0.79945 1.0454 0.79944 1.3119 0.000001 3.9357-1.5374 7.8715-4.6122 3.9767-3.0748 6.9695-5.6166 8.9784-7.6255 0.45095-0.53295 1.0864-1.3324 1.9064-2.3983 0.77892-0.90192 1.6399-1.3529 2.5828-1.3529 0.94291 0.000017 1.4144 0.45099 1.4144 1.3529-0.000024 0.164-0.92246 1.6194-2.7673 4.3662-1.8449 2.7468-2.8083 4.2022-2.8903 4.3662-1.2709 2.4598-3.2183 6.0471-5.8421 10.762-3.9767 6.3956-7.9535 9.5933-11.93 9.5933-1.3119-0.000012-2.4598-0.57397-3.4438-1.7219-0.98393-1.1069-1.4554-2.3573-1.4144-3.7512"/>
    <path id="path3362" d="m97.814 34.976c-0.000002 1.2299 0.67645 1.8449 2.0294 1.8449 1.3529 0.000002 3.0953-0.71745 5.2271-2.1524 2.1318-1.4349 4.2022-3.3823 6.2111-5.8421 0.49195-0.65594 0.88142-0.98392 1.1684-0.98393 0.28696 0.000011 0.43045 0.123 0.43047 0.36898-0.00002 0.24599-0.84046 1.3119-2.5213 3.1978-4.0997 4.5097-7.523 6.7645-10.27 6.7645-1.3529 0-2.5008-0.30748-3.4438-0.92244-0.94294-0.65595-1.4144-1.6399-1.4144-2.9518 0-1.3529 0.34848-2.9108 1.0454-4.6737 1.1889-2.7878 3.0953-6.2931 5.7191-10.516 4.7967-7.7894 8.1994-11.684 10.208-11.684 0.40996 0.0000307 0.81993 0.16402 1.2299 0.49197 0.45095 0.28701 0.69693 0.61499 0.73795 0.98393-0.94296 1.2709-2.7673 3.7103-5.4731 7.318-2.6648 3.6078-4.5097 6.2111-5.5346 7.81-1.0249 1.5579-1.8039 2.7263-2.3368 3.5053-0.49198 0.77896-0.86095 1.3939-1.1069 1.8449-0.24599 0.40998-0.53297 0.96344-0.86094 1.6604-0.69696 1.3939-1.0454 2.7058-1.0454 3.9357"/>
    <path id="path3364" d="m112.71 34.976c0 1.2299 0.67645 1.8449 2.0294 1.8449 1.3529 0.000002 3.0953-0.71745 5.2271-2.1524 2.1318-1.4349 4.2022-3.3823 6.2111-5.8421 0.49195-0.65594 0.88142-0.98392 1.1684-0.98393 0.28696 0.000011 0.43045 0.123 0.43047 0.36898-0.00002 0.24599-0.84046 1.3119-2.5213 3.1978-4.0997 4.5097-7.523 6.7645-10.27 6.7645-1.3529 0-2.5008-0.30748-3.4438-0.92244-0.94293-0.65595-1.4144-1.6399-1.4144-2.9518 0-1.3529 0.34848-2.9108 1.0454-4.6737 1.1889-2.7878 3.0953-6.2931 5.7191-10.516 4.7966-7.7894 8.1994-11.684 10.208-11.684 0.40996 0.0000307 0.81993 0.16402 1.2299 0.49197 0.45095 0.28701 0.69693 0.61499 0.73795 0.98393-0.94295 1.2709-2.7673 3.7103-5.4731 7.318-2.6648 3.6078-4.5097 6.2111-5.5346 7.81-1.0249 1.5579-1.8039 2.7263-2.3368 3.5053-0.49197 0.77896-0.86095 1.3939-1.1069 1.8449-0.24598 0.40998-0.53296 0.96344-0.86094 1.6604-0.69695 1.3939-1.0454 2.7058-1.0454 3.9357"/>
   </g>
   <text id="text3850" style="word-spacing:0px;letter-spacing:0px" line-height="125%" xml:space="preserve" font-size="48px" y="64.34523" x="43.276119" font-family="Folks-Light" fill="#000000"><tspan id="tspan3852" font-size="20px" y="64.34523" x="43.276119" fill="#333333">laboratory</tspan></text>
  </g>
 </g>
</svg>
