<?xml version="1.0" encoding="UTF-8" standalone="no"?>
<!-- Created with Inkscape (http://www.inkscape.org/) -->
<svg id="svg2676" xmlns:rdf="http://www.w3.org/1999/02/22-rdf-syntax-ns#" xmlns="http://www.w3.org/2000/svg" height="100" width="100" version="1.1" xmlns:cc="http://creativecommons.org/ns#" xmlns:xlink="http://www.w3.org/1999/xlink" xmlns:dc="http://purl.org/dc/elements/1.1/">
 <title id="title4509">Jekyll Laboratory logotype</title>
 <metadata id="metadata2681">
  <rdf:RDF>
   <cc:Work rdf:about="">
    <dc:format>image/svg+xml</dc:format>
    <dc:type rdf:resource="http://purl.org/dc/dcmitype/StillImage"/>
    <cc:license rdf:resource="https://github.com/jekyllrc/brand/blob/master/LICENSE.markdown"/>
    <dc:title>Jekyll Laboratory logotype</dc:title>
    <dc:date>2015-08-01</dc:date>
    <dc:creator>
     <cc:Agent>
      <dc:title>Günter Kits (kyber@kits.ee)</dc:title>
     </cc:Agent>
    </dc:creator>
    <dc:subject>
     <rdf:Bag>
      <rdf:li>jekyll laboratory</rdf:li>
     </rdf:Bag>
    </dc:subject>
    <dc:contributor>
     <cc:Agent>
      <dc:title/>
     </cc:Agent>
    </dc:contributor>
    <dc:source>https://github.com/jekyllrc/brand</dc:source>
    <dc:description>Solid three color logotype.</dc:description>
   </cc:Work>
  </rdf:RDF>
 </metadata>
 <g id="g3521" transform="translate(-118.87 23.015)">
  <g id="g4738">
   <g id="group-flask-front-7" transform="matrix(-.37854 -.92558 .92558 -.37854 137.74 59.57)" stroke="#333" fill="none">
    <path id="flask-mouth-69" stroke-linejoin="round" d="m32.426 8.5a8.213 1.5 0 1 1 -16.426 0 8.213 1.5 0 1 1 16.426 0z" transform="matrix(.62274 0 0 .77366 8.9215 -.5761)" stroke-linecap="round" stroke-width=".72034"/>
    <path id="flask-mouth-reflection-2-1" stroke-linejoin="round" d="m28.294 9.1024c-1.583 0.27104-2.0556 0.49632-4.2902 0.49632s-2.9549-0.31373-4.3143-0.47707" stroke-linecap="round" stroke-width=".5"/>
    <path id="flask-border-5" d="m19.228 5.6024c-0.95432 0.25-1.496 3.0385 0.47716 3.5v8l-9.9895 16.918c-1.1937 2.023-2.5237 5.184 1.4295 7.189 2.553 1.063 7.091 1.791 12.855 1.791 5.7644 0 10.302-0.72809 12.855-1.7914 3.9528-2.0047 2.6228-5.1659 1.4285-7.1886l-9.9895-16.918v-8c2.1279-0.54987 1.4315-3.25 0.47716-3.5" stroke-width=".5"/>
   </g>
   <g id="text3500" transform="matrix(.13223 .99122 -.99122 .13223 195.12 105.51)" fill="#333">
    <path id="path4491" d="m-86.491 22.866c0.03837 0.94643-0.66955 1.7499-1.5888 1.8266-0.91923 0.07667-1.7628-0.60736-1.8671-1.5522-0.10431-0.94479 0.60207-1.8084 1.5872-1.8868 0.98517-0.07831 1.8303 0.66591 1.8687 1.6123zm4.6109 3.6172c-0.07279 0.46045-0.4295 0.79158-0.80955 0.74814-0.37469-0.04283-0.66394-0.44234-0.62694-0.91398 0.03648-0.465 0.41314-0.82631 0.82414-0.77892s0.68514 0.48432 0.61235 0.94477zm1.0648-6.7357c-0.07279 0.46045-0.55818 0.77415-1.0855 0.71223-0.51993-0.06105-0.9191-0.47306-0.8821-0.94471 0.03648-0.465 0.52306-0.81381 1.0793-0.7482s0.96112 0.52023 0.88834 0.98068zm-3.0645 2.5098c0.0041-0.09335-0.06109-0.18325-0.15711-0.2071-0.34827-0.065-0.69856-0.12356-1.0504-0.17632-0.0622-0.18768-0.14644-0.36865-0.2393-0.5493 0.1962-0.26162 0.41152-0.50089 0.62542-0.75766 0.02956-0.03957 0.052-0.07922 0.05272-0.12602 0.0029-0.18721-0.86664-0.9184-1.0632-1.0777-0.0453-0.03315-0.09795-0.05275-0.15762-0.05201-0.0522 0.00065-0.10409 0.01483-0.14788 0.0491-0.28762 0.20383-0.56925 0.41144-0.8456 0.62228-0.17808-0.07346-0.36377-0.13879-0.55571-0.18233-0.07605-0.33954-0.15334-0.679-0.23182-1.0184-0.02076-0.0932-0.12958-0.16121-0.23335-0.15484-0.45958 0.0282-0.9146 0.06351-1.3647 0.10459-0.10164 0.0093-0.18207 0.08467-0.20184 0.1814-0.06198 0.33784-0.061 0.71046-0.06308 1.0495-0.18529 0.07934-0.35458 0.16485-0.52057 0.27107-0.29045-0.17188-0.58172-0.34173-0.87298-0.5097-0.04505-0.02164-0.09629-0.03568-0.15206-0.02872-0.20216 0.02521-0.8726 0.93496-0.98556 1.1334-0.02888 0.04462-0.03646 0.0931-0.03047 0.13974 0.006 0.04663 0.03234 0.09049 0.06462 0.12678 0.24971 0.22374 0.48496 0.44388 0.70832 0.68681-0.06777 0.17819-0.12148 0.3546-0.15381 0.53503-0.34255 0.09809-0.68328 0.19752-1.0223 0.29743-0.08532 0.02505-0.13904 0.13372-0.12764 0.22003l0.16223 1.2282c0.01228 0.09294 0.09028 0.17068 0.1853 0.17202 0.34453 0.0099 0.68913 0.02056 1.0333 0.03253 0.08338 0.17948 0.18564 0.35 0.30069 0.51921-0.16008 0.28347-0.32732 0.55427-0.48652 0.83056-0.02132 0.04316-0.03599 0.08552-0.03001 0.13216 0.02479 0.19321 0.88867 0.81637 1.0768 0.9577 0.04298 0.02901 0.09076 0.04395 0.14259 0.03812 0.04534-0.0051 0.09554-0.02427 0.12397-0.06134 0.23125-0.22694 0.46303-0.45355 0.69601-0.67929 0.16378 0.06406 0.33233 0.12125 0.50428 0.15832 0.08313 0.33731 0.16536 0.67475 0.24664 1.0123 0.02165 0.09273 0.1164 0.15797 0.20374 0.14962 0.38682-0.03699 0.76936-0.0705 1.1473-0.09918 0.08534-0.0065 0.15387-0.07892 0.17231-0.17471 0.05844-0.33481 0.06718-0.70627 0.07802-1.0509 0.16551-0.06487 0.31777-0.14134 0.46969-0.23696 0.24852 0.18863 0.49165 0.37945 0.72858 0.57259 0.03697 0.02557 0.07966 0.04426 0.12786 0.04277 0.17473-0.0054 0.84929-0.83012 0.97457-1.0098 0.03115-0.03321 0.04421-0.07988 0.04496-0.12668 0.000858-0.05348-0.017-0.09378-0.0412-0.1341-0.19458-0.25569-0.3832-0.50286-0.56425-0.76898 0.08235-0.16828 0.15324-0.33596 0.20553-0.51008 0.33645-0.05406 0.67354-0.10216 1.0114-0.14345 0.08501-0.0103 0.15439-0.10753 0.15819-0.19422zm3.49 4.0709c0.0246-0.09739-0.6683-0.36213-0.77831-0.39828-0.02197-0.12703-0.05634-0.25632-0.10622-0.37444 0.07618-0.12114 0.45293-0.72533 0.47686-0.84301 0.0027-0.01307 0.000593-0.03396-0.01499-0.05081-0.06366-0.06085-0.6535-0.59407-0.685-0.59908-0.01329 0.0024-0.02658 0.0048-0.03986 0.0072-0.24905 0.19005-0.47104 0.42154-0.67454 0.65763-0.06026-0.01429-0.12069-0.02828-0.182-0.03538-0.0613-0.0071-0.12345-0.0073-0.1856-0.0072-0.05078-0.10581-0.46202-0.80564-0.54536-0.81205-0.03205-0.0025-0.74096 0.3824-0.8188 0.41925-0.01961 0.01254-0.02682 0.0323-0.0274 0.04563-0.005 0.11335 0.22259 0.79807 0.26951 0.93407-0.07881 0.10276-0.14532 0.21993-0.19914 0.33784-0.12042 0.0082-0.90107 0.08616-0.90233 0.18648l-0.01173 0.93628c-0.0013 0.10032 0.73562 0.20568 0.84772 0.22339 0.03886 0.12837 0.08878 0.24391 0.14889 0.35352-0.05728 0.13086-0.31806 0.79576-0.32303 0.90912-0.000584 0.01333 0.0039 0.03348 0.01923 0.04729 0.0617 0.04856 0.58785 0.50128 0.61302 0.50296 0.06545 0.0044 0.50673-0.62658 0.56872-0.72062 0.05062 0.01189 0.10099 0.02402 0.15193 0.02981 0.05093 0.0058 0.10248 0.0052 0.15392 0.005 0.03813 0.10542 0.30957 0.81742 0.37053 0.82765 0.02345 0.0039 0.59903-0.31845 0.66444-0.35152 0.01668-0.0099 0.02403-0.0219 0.02802-0.04151 0.02393-0.11768-0.05235-0.81617-0.07379-0.95632 0.08028-0.09278 0.15269-0.19351 0.2183-0.30916 0.10576 0.0087 0.78283 0.08261 0.80743-0.01478zm1.6792-6.6484c0.0246-0.09739-0.98861-0.40881-1.1461-0.45166-0.04096-0.12971-0.09895-0.26232-0.17685-0.38434 0.0972-0.11822 0.57369-0.70834 0.59763-0.82602 0.0027-0.01307-0.0018-0.0343-0.02458-0.05217-0.0924-0.06493-0.92954-0.63229-0.97223-0.63881-0.01777 0.0018-0.03552 0.0036-0.05326 0.0054-0.32486 0.17989-0.61165 0.40294-0.87431 0.63147-0.08138-0.01699-0.16276-0.03363-0.24482-0.04333-0.08205-0.0097-0.16476-0.01243-0.24727-0.01484-0.07115-0.10832-0.63065-0.82584-0.73884-0.83511-0.04161-0.0036-0.94722 0.35975-1.0461 0.39443-0.02487 0.012-0.03383 0.03158-0.03441 0.04491-0.005 0.11336 0.29713 0.80586 0.36037 0.94362-0.10058 0.10042-0.18497 0.2157-0.25299 0.33212-0.15594 0.0045-1.1516 0.06198-1.1528 0.16229l-0.01174 0.93628c-0.0013 0.10032 0.9506 0.22615 1.0982 0.24757 0.05307 0.12986 0.12086 0.24728 0.20274 0.35924-0.0736 0.1291-0.40892 0.78621-0.41389 0.89956-0.000585 0.01333 0.0056 0.03366 0.02624 0.04801 0.08275 0.05073 0.8056 0.525 0.84033 0.52778 0.0903 0.0072 0.67984-0.60603 0.7622-0.69756 0.07099 0.0144 0.14192 0.02908 0.2136 0.03748s0.14416 0.0105 0.21674 0.01294c0.05926 0.10812 0.49366 0.84147 0.5837 0.85561 0.03463 0.0054 0.85751-0.2828 0.95167-0.31179 0.02387-0.0089 0.03363-0.02054 0.03762-0.04014 0.02393-0.11768-0.1521-0.83024-0.19455-0.97331 0.1083-0.08888 0.20434-0.18629 0.28894-0.29926 0.15324 0.01536 1.1506 0.13598 1.1752 0.03859z" fill="#333"/>
   </g>
  </g>
  <g id="g6031" transform="matrix(.99982 -.019007 .019007 .99982 -16.226 88.101)">
   <g id="group-liquid-8" fill="#729fcf" transform="matrix(1.0374 0 0 1 182.39 -87.861)">
    <path id="liquid-bottom-7" d="m14.937 27.974-3.1393 5.4409c-1.5149 2.6352-1.8871 3.4979-1.4643 4.7949 0.56132 1.7218 2.8712 3.6751 13.207 3.6751 7.9766 0 13.074-0.82147 14.155-3.6177 0.37824-0.97803-0.0049-2.4668-0.74651-3.7038l-3.8938-6.5032c-0.08626 0.25028-0.18156 0.42473-0.33969 0.58859-0.40021 0.41472-0.97036 0.70989-1.7386 0.94749-1.5365 0.47521-3.8107 0.74651-6.977 0.74651-3.1959 0-5.476-0.27104-7.0057-0.74651-0.76483-0.23773-1.4076-0.59673-1.6822-0.92955-0.15415-0.18682-0.27946-0.25008-0.37532-0.69268z"/>
    <path id="liquid-top-5" style="block-progression:tb;color:#000000;text-transform:none;text-indent:0" d="m24 24.998c2.4407 0 4.6534 0.27976 6.2303 0.72038 0.78842 0.22031 1.4197 0.48814 1.8301 0.75931 0.41046 0.27117 0.56462 0.51754 0.56462 0.72038 0 0.24692-0.11947 0.47968-0.42833 0.73984-0.30886 0.26017-0.81345 0.52175-1.5186 0.73985-1.4104 0.43619-3.6099 0.72038-6.6781 0.72038-3.0976 0-5.3145-0.28444-6.717-0.72038-0.70124-0.21797-1.195-0.4803-1.4992-0.73985-0.30414-0.25954-0.40886-0.49086-0.40886-0.73984 0-0.20284 0.15416-0.4492 0.56462-0.72038 0.41046-0.27117 1.0417-0.539 1.8301-0.75931 1.577-0.44 3.789-0.72 6.23-0.72z"/>
   </g>
   <g id="group-flask-front-8" transform="translate(183.25 -88.092)" stroke="#333" fill="none">
    <path id="flask-mouth-2" stroke-linejoin="round" d="m32.426 8.5a8.213 1.5 0 1 1 -16.426 0 8.213 1.5 0 1 1 16.426 0z" transform="matrix(.62274 0 0 .77366 8.9215 -.5761)" stroke-linecap="round" stroke-width=".72034"/>
    <path id="flask-mouth-reflection-2-3" stroke-linejoin="round" d="m28.294 9.1024c-1.583 0.27104-2.0556 0.49632-4.2902 0.49632s-2.9549-0.31373-4.3143-0.47707" stroke-linecap="round" stroke-width=".5"/>
    <path id="flask-border-7" d="m19.228 5.6024c-0.95432 0.25-1.496 3.0385 0.47716 3.5v8l-9.9895 16.918c-1.1937 2.023-2.5237 5.184 1.4295 7.189 2.553 1.063 7.091 1.791 12.855 1.791 5.7644 0 10.302-0.72809 12.855-1.7914 3.9528-2.0047 2.6228-5.1659 1.4285-7.1886l-9.9895-16.918v-8c2.1279-0.54987 1.4315-3.25 0.47716-3.5" stroke-width=".5"/>
   </g>
   <g id="text3530" transform="matrix(.99982 .019007 -.019007 .99982 -30.15 -75.237)" fill="#333">
    <path id="path4443" d="m235.56 22.046c0.0718-0.68598-0.47159-1.3024-1.1966-1.4078-0.72504-0.10534-1.3923 0.33698-1.5079 1.014-0.11566 0.67705 0.38742 1.3448 1.1563 1.4591 0.76887 0.11427 1.4764-0.37938 1.5483-1.0654zm3.8571 0.906c-0.19152-1.3664-0.92449-2.6241-1.8959-3.6438-0.96449-1.0259-2.1394-1.7633-3.463-2.0827-0.0126-0.002-0.0189-0.003-0.0315-0.0049-0.10076-0.01587-0.20782 0.0064-0.28907 0.06539-0.10124 0.06235-0.16418 0.1635-0.18382 0.27846l-0.1473 0.86228c-0.036 0.21078 0.0967 0.4115 0.30868 0.46618 0.9791 0.25676 1.8235 0.80576 2.4714 1.5297 0.64788 0.72399 1.1071 1.6258 1.1773 2.6174 0.0141 0.21454 0.21874 0.38335 0.47925 0.38658 0.35525 0.0044 0.71389 0.0016 1.0757-0.0092 0.14472-0.0043 0.28092-0.05497 0.37424-0.14958 0.0936-0.08816 0.13683-0.20029 0.12412-0.31593zm4.1742-0.57897c-0.36437-1.0785-0.96651-2.0602-1.6436-2.9575-0.67712-0.89736-1.4266-1.7139-2.2065-2.4576-1.5545-1.4942-3.1341-2.6065-5.1646-3.0154-0.005-0.000777-0.0118-0.0017-0.0175-0.0025-0.0937-0.01344-0.19411 0.01136-0.27795 0.07772-0.0897 0.0655-0.14894 0.16149-0.16858 0.27646l-0.15603 0.91338c-0.036 0.21078 0.0925 0.41459 0.2975 0.45876 1.7517 0.37688 3.164 1.3245 4.3898 2.5601 0.61294 0.61777 1.1791 1.3123 1.6579 2.0794 0.47883 0.76717 0.86997 1.6089 1.0627 2.5267 0.0457 0.21475 0.30151 0.34988 0.58644 0.30507 0.39948-0.06281 0.80172-0.13667 1.2064-0.22242 0.15284-0.03238 0.27861-0.10697 0.35937-0.21195 0.0892-0.10692 0.11112-0.22564 0.0747-0.33016" fill="#333"/>
   </g>
  </g>
  <g id="g6003" transform="translate(14.549 91.651)">
   <g id="group-liquid-4" fill="#73d216" transform="matrix(1.0374 0 0 1 131.87 -81.617)">
    <path id="liquid-bottom-8" d="m14.937 27.974-3.1393 5.4409c-1.5149 2.6352-1.8871 3.4979-1.4643 4.7949 0.56132 1.7218 2.8712 3.6751 13.207 3.6751 7.9766 0 13.074-0.82147 14.155-3.6177 0.37824-0.97803-0.0049-2.4668-0.74651-3.7038l-3.8938-6.5032c-0.08626 0.25028-0.18156 0.42473-0.33969 0.58859-0.40021 0.41472-0.97036 0.70989-1.7386 0.94749-1.5365 0.47521-3.8107 0.74651-6.977 0.74651-3.1959 0-5.476-0.27104-7.0057-0.74651-0.76483-0.23773-1.4076-0.59673-1.6822-0.92955-0.15415-0.18682-0.27946-0.25008-0.37532-0.69268z"/>
    <path id="liquid-top-3" style="block-progression:tb;color:#000000;text-transform:none;text-indent:0" d="m24 24.998c2.4407 0 4.6534 0.27976 6.2303 0.72038 0.78842 0.22031 1.4197 0.48814 1.8301 0.75931 0.41046 0.27117 0.56462 0.51754 0.56462 0.72038 0 0.24692-0.11947 0.47968-0.42833 0.73984-0.30886 0.26017-0.81345 0.52175-1.5186 0.73985-1.4104 0.43619-3.6099 0.72038-6.6781 0.72038-3.0976 0-5.3145-0.28444-6.717-0.72038-0.70124-0.21797-1.195-0.4803-1.4992-0.73985-0.30414-0.25954-0.40886-0.49086-0.40886-0.73984 0-0.20284 0.15416-0.4492 0.56462-0.72038 0.41046-0.27117 1.0417-0.539 1.8301-0.75931 1.577-0.44 3.789-0.72 6.23-0.72z"/>
   </g>
   <g id="group-flask-front-55" transform="translate(132.73 -81.848)" stroke="#333" fill="none">
    <path id="flask-mouth-0" stroke-linejoin="round" d="m32.426 8.5a8.213 1.5 0 1 1 -16.426 0 8.213 1.5 0 1 1 16.426 0z" transform="matrix(.62274 0 0 .77366 8.9215 -.5761)" stroke-linecap="round" stroke-width=".72034"/>
    <path id="flask-mouth-reflection-2-4" stroke-linejoin="round" d="m28.294 9.1024c-1.583 0.27104-2.0556 0.49632-4.2902 0.49632s-2.9549-0.31373-4.3143-0.47707" stroke-linecap="round" stroke-width=".5"/>
    <path id="flask-border-0" d="m19.228 5.6024c-0.95432 0.25-1.496 3.0385 0.47716 3.5v8l-9.9895 16.918c-1.1937 2.023-2.5237 5.184 1.4295 7.189 2.553 1.063 7.091 1.791 12.855 1.791 5.7644 0 10.302-0.72809 12.855-1.7914 3.9528-2.0047 2.6228-5.1659 1.4285-7.1886l-9.9895-16.918v-8c2.1279-0.54987 1.4315-3.25 0.47716-3.5" stroke-width=".5"/>
   </g>
   <path id="path4482" d="m153.93-42.845c0.11347-0.07305 0.12829-0.2056 0.0377-0.30434-0.91302-0.99503-1.6855-2.0498-2.2953-3.1402 1.1031-0.58672 2.0819-1.2842 2.9392-2.06 0.0851-0.077 0.0999-0.20953 0.0377-0.30434-0.0798-0.12155-0.1571-0.24375-0.23197-0.36654-0.0584-0.0958-0.1654-0.11197-0.24973-0.0378-1.0077 0.88574-2.1843 1.6567-3.5345 2.2587-0.113 0.05038-0.16189 0.17516-0.10853 0.2882 0.63764 1.3506 1.5144 2.6591 2.5935 3.8853 0.0903 0.10262 0.25242 0.12777 0.36919 0.05725 0.1497-0.09042 0.29729-0.18249 0.44277-0.27615zm3.9704-7.0518c0.0153-0.11616-0.0495-0.23039-0.14123-0.25507-0.11126-0.0272-0.22161-0.0557-0.33101-0.0854-0.085-0.0271-0.1735 0.0458-0.19337 0.16109-0.49135 2.917-1.3687 5.8021-2.6606 8.5682-0.0518 0.1092 0.0223 0.23686 0.16448 0.28196 0.17308 0.05208 0.34705 0.10217 0.52186 0.15025 0.13513 0.04131 0.29244-0.01822 0.33928-0.12983 1.1669-2.8259 1.9242-5.7519 2.3006-8.6911zm4.8533 3.3851c0.0571-0.11113 0.0131-0.23759-0.0983-0.29195-1.3314-0.64951-2.5389-1.434-3.5857-2.3134-0.0876-0.0736-0.1989-0.0556-0.25916 0.0419-0.0772 0.12499-0.1565 0.24944-0.23773 0.37329-0.0634 0.0966-0.0471 0.22971 0.0407 0.30576 0.8846 0.76639 1.8868 1.4665 2.9847 2.0763-0.63283 1.0848-1.3948 2.145-2.2889 3.1483-0.0887 0.09956-0.0724 0.23266 0.0407 0.30576 0.14506 0.09371 0.29187 0.18603 0.4404 0.27691 0.11585 0.07088 0.27519 0.04578 0.36328-0.05725 1.0526-1.2311 1.9176-2.5377 2.6-3.8656z" fill="#333"/>
  </g>
 </g>
</svg>
